<?xml version="1.0" encoding="utf-8" standalone="no"?>
<!DOCTYPE svg PUBLIC "-//W3C//DTD SVG 1.1//EN"
  "http://www.w3.org/Graphics/SVG/1.1/DTD/svg11.dtd">
<svg xmlns:xlink="http://www.w3.org/1999/xlink" width="354.330709pt" height="216pt" viewBox="0 0 354.330709 216" xmlns="http://www.w3.org/2000/svg" version="1.1">
 <metadata>
  <rdf:RDF xmlns:dc="http://purl.org/dc/elements/1.1/" xmlns:cc="http://creativecommons.org/ns#" xmlns:rdf="http://www.w3.org/1999/02/22-rdf-syntax-ns#">
   <cc:Work>
    <dc:type rdf:resource="http://purl.org/dc/dcmitype/StillImage"/>
    <dc:date>2026-09-10</dc:date>
    <dc:format>image/svg+xml</dc:format>
    <dc:creator>
     <cc:Agent>
      <dc:title>OpenONDA VPM time-integration study</dc:title>
     </cc:Agent>
    </dc:creator>
   </cc:Work>
  </rdf:RDF>
 </metadata>
 <defs>
  <style type="text/css">*{stroke-linejoin: round; stroke-linecap: butt}</style>
 </defs>
 <g id="figure_1">
  <g id="patch_1">
   <path d="M 0 216 
L 354.330709 216 
L 354.330709 0 
L 0 0 
z
" style="fill: #ffffff"/>
  </g>
  <g id="axes_1">
   <g id="patch_2">
    <path d="M 54.58807 174.57222 
L 168.090266 174.57222 
L 168.090266 56.345985 
L 54.58807 56.345985 
z
" style="fill: #ffffff"/>
   </g>
   <g id="matplotlib.axis_1">
    <g id="xtick_1">
     <g id="line2d_1">
      <path d="M 60.793154 174.57222 
L 60.793154 56.345985 
" clip-path="url(#p7bdba60180)" style="fill: none; stroke-dasharray: 1.85,0.8; stroke-dashoffset: 0; stroke: #b0b0b0; stroke-opacity: 0.3; stroke-width: 0.5"/>
     </g>
     <g id="line2d_2">
      <defs>
       <path id="m6730c4d4c5" d="M 0 0 
L 0 -6 
" style="stroke: #000000; stroke-width: 0.5"/>
      </defs>
      <g>
       <use xlink:href="#m6730c4d4c5" x="60.793154" y="174.57222" style="stroke: #000000; stroke-width: 0.5"/>
      </g>
     </g>
     <g id="line2d_3">
      <defs>
       <path id="m17c31672be" d="M 0 0 
L 0 6 
" style="stroke: #000000; stroke-width: 0.5"/>
      </defs>
      <g>
       <use xlink:href="#m17c31672be" x="60.793154" y="56.345985" style="stroke: #000000; stroke-width: 0.5"/>
      </g>
     </g>
     <g id="text_1">
      <!-- .00625 -->
      <g transform="translate(45.793183 186.046756) scale(0.1095 -0.1095)">
       <defs>
        <path id="TeXGyrePagellaX-Regular-f" d="M 1171 307 
C 1171 499 992 678 793 678 
C 601 678 428 499 428 307 
C 428 115 601 -64 787 -64 
C 992 -64 1171 108 1171 307 
z
" transform="scale(0.015625)"/>
        <path id="TeXGyrePagellaX-Regular-11" d="M 2976 2345 
C 2976 3749 2560 4416 1683 4416 
C 691 4416 185 3628 185 2076 
C 185 1326 320 679 544 365 
C 768 51 1126 -128 1523 -128 
C 2489 -128 2976 704 2976 2345 
z
M 2438 2025 
C 2438 660 2195 96 1606 96 
C 985 96 723 743 723 2307 
C 723 3660 960 4191 1568 4191 
C 2188 4191 2438 3563 2438 2025 
z
" transform="scale(0.015625)"/>
        <path id="TeXGyrePagellaX-Regular-17" d="M 2995 1405 
C 2995 2143 2553 2624 1875 2624 
C 1497 2624 1260 2470 838 2124 
C 972 3283 1510 3910 2662 4256 
L 2662 4307 
L 2425 4416 
C 1811 4211 1548 4083 1222 3801 
C 563 3244 204 2463 204 1585 
C 204 526 716 -128 1542 -128 
C 2374 -128 2995 532 2995 1405 
z
M 2444 1180 
C 2444 513 2118 83 1625 83 
C 1081 83 787 551 787 1411 
C 787 1636 812 1758 883 1867 
C 1024 2085 1324 2239 1632 2239 
C 2118 2239 2444 1816 2444 1180 
z
" transform="scale(0.015625)"/>
        <path id="TeXGyrePagellaX-Regular-13" d="M 2995 -20 
C 2982 115 2982 179 2982 269 
C 2982 352 2982 416 2995 557 
L 780 493 
L 1945 1730 
C 2566 2390 2758 2743 2758 3224 
C 2758 3961 2259 4416 1446 4416 
C 985 4416 672 4287 358 3967 
L 249 3096 
L 435 3096 
L 518 3390 
C 620 3762 851 3923 1280 3923 
C 1830 3923 2182 3576 2182 3032 
C 2182 2551 1913 2076 1190 1307 
L 102 147 
L 102 -20 
C 576 -7 1056 0 1529 0 
C 2016 0 2508 -7 2995 -20 
z
" transform="scale(0.015625)"/>
        <path id="TeXGyrePagellaX-Regular-16" d="M 2937 1631 
C 2937 2360 2419 2873 1689 2873 
C 1382 2873 1152 2790 755 2553 
L 812 3846 
L 2764 3815 
L 2796 3846 
C 2784 3961 2784 3999 2784 4095 
C 2784 4198 2784 4236 2796 4352 
L 2764 4384 
C 2764 4384 2086 4352 1651 4352 
C 1216 4352 537 4384 537 4384 
L 505 4352 
L 518 3491 
C 518 2953 499 2360 480 2076 
L 608 2038 
C 908 2341 1081 2432 1395 2432 
C 2009 2432 2393 1992 2393 1295 
C 2393 579 1984 160 1286 160 
C 940 160 620 276 531 443 
L 236 973 
L 83 882 
C 230 514 307 308 396 25 
C 576 -71 832 -128 1107 -128 
C 1536 -128 1990 57 2342 366 
C 2732 715 2937 1153 2937 1631 
z
" transform="scale(0.015625)"/>
       </defs>
       <use xlink:href="#TeXGyrePagellaX-Regular-f" transform="scale(0.996264)"/>
       <use xlink:href="#TeXGyrePagellaX-Regular-11" transform="translate(24.9066 0) scale(0.996264)"/>
       <use xlink:href="#TeXGyrePagellaX-Regular-11" transform="translate(74.719801 0) scale(0.996264)"/>
       <use xlink:href="#TeXGyrePagellaX-Regular-17" transform="translate(124.533001 0) scale(0.996264)"/>
       <use xlink:href="#TeXGyrePagellaX-Regular-13" transform="translate(174.346202 0) scale(0.996264)"/>
       <use xlink:href="#TeXGyrePagellaX-Regular-16" transform="translate(224.159402 0) scale(0.996264)"/>
      </g>
     </g>
    </g>
    <g id="xtick_2">
     <g id="line2d_4">
      <path d="M 94.438803 174.57222 
L 94.438803 56.345985 
" clip-path="url(#p7bdba60180)" style="fill: none; stroke-dasharray: 1.85,0.8; stroke-dashoffset: 0; stroke: #b0b0b0; stroke-opacity: 0.3; stroke-width: 0.5"/>
     </g>
     <g id="line2d_5">
      <g>
       <use xlink:href="#m6730c4d4c5" x="94.438803" y="174.57222" style="stroke: #000000; stroke-width: 0.5"/>
      </g>
     </g>
     <g id="line2d_6">
      <g>
       <use xlink:href="#m17c31672be" x="94.438803" y="56.345985" style="stroke: #000000; stroke-width: 0.5"/>
      </g>
     </g>
     <g id="text_2">
      <!-- .0125 -->
      <g transform="translate(82.1661 186.046756) scale(0.1095 -0.1095)">
       <defs>
        <path id="TeXGyrePagellaX-Regular-12" d="M 2675 -20 
L 2675 172 
L 2342 192 
C 1990 211 1926 281 1926 611 
L 1926 4384 
L 1836 4416 
C 1420 4199 966 4008 384 3805 
L 428 3531 
L 492 3531 
C 774 3658 1056 3786 1337 3907 
C 1376 3907 1388 3849 1388 3697 
L 1388 611 
C 1388 281 1318 211 972 192 
L 614 172 
L 614 -20 
C 966 -7 1318 0 1670 0 
C 2003 0 2342 -7 2675 -20 
z
" transform="scale(0.015625)"/>
       </defs>
       <use xlink:href="#TeXGyrePagellaX-Regular-f" transform="scale(0.996264)"/>
       <use xlink:href="#TeXGyrePagellaX-Regular-11" transform="translate(24.9066 0) scale(0.996264)"/>
       <use xlink:href="#TeXGyrePagellaX-Regular-12" transform="translate(74.719801 0) scale(0.996264)"/>
       <use xlink:href="#TeXGyrePagellaX-Regular-13" transform="translate(124.533001 0) scale(0.996264)"/>
       <use xlink:href="#TeXGyrePagellaX-Regular-16" transform="translate(174.346202 0) scale(0.996264)"/>
      </g>
     </g>
    </g>
    <g id="xtick_3">
     <g id="line2d_7">
      <path d="M 128.084452 174.57222 
L 128.084452 56.345985 
" clip-path="url(#p7bdba60180)" style="fill: none; stroke-dasharray: 1.85,0.8; stroke-dashoffset: 0; stroke: #b0b0b0; stroke-opacity: 0.3; stroke-width: 0.5"/>
     </g>
     <g id="line2d_8">
      <g>
       <use xlink:href="#m6730c4d4c5" x="128.084452" y="174.57222" style="stroke: #000000; stroke-width: 0.5"/>
      </g>
     </g>
     <g id="line2d_9">
      <g>
       <use xlink:href="#m17c31672be" x="128.084452" y="56.345985" style="stroke: #000000; stroke-width: 0.5"/>
      </g>
     </g>
     <g id="text_3">
      <!-- .025 -->
      <g transform="translate(118.539017 186.046756) scale(0.1095 -0.1095)">
       <use xlink:href="#TeXGyrePagellaX-Regular-f" transform="scale(0.996264)"/>
       <use xlink:href="#TeXGyrePagellaX-Regular-11" transform="translate(24.9066 0) scale(0.996264)"/>
       <use xlink:href="#TeXGyrePagellaX-Regular-13" transform="translate(74.719801 0) scale(0.996264)"/>
       <use xlink:href="#TeXGyrePagellaX-Regular-16" transform="translate(124.533001 0) scale(0.996264)"/>
      </g>
     </g>
    </g>
    <g id="xtick_4">
     <g id="line2d_10">
      <path d="M 161.730101 174.57222 
L 161.730101 56.345985 
" clip-path="url(#p7bdba60180)" style="fill: none; stroke-dasharray: 1.85,0.8; stroke-dashoffset: 0; stroke: #b0b0b0; stroke-opacity: 0.3; stroke-width: 0.5"/>
     </g>
     <g id="line2d_11">
      <g>
       <use xlink:href="#m6730c4d4c5" x="161.730101" y="174.57222" style="stroke: #000000; stroke-width: 0.5"/>
      </g>
     </g>
     <g id="line2d_12">
      <g>
       <use xlink:href="#m17c31672be" x="161.730101" y="56.345985" style="stroke: #000000; stroke-width: 0.5"/>
      </g>
     </g>
     <g id="text_4">
      <!-- .05 -->
      <g transform="translate(154.911934 186.046756) scale(0.1095 -0.1095)">
       <use xlink:href="#TeXGyrePagellaX-Regular-f" transform="scale(0.996264)"/>
       <use xlink:href="#TeXGyrePagellaX-Regular-11" transform="translate(24.9066 0) scale(0.996264)"/>
       <use xlink:href="#TeXGyrePagellaX-Regular-16" transform="translate(74.719801 0) scale(0.996264)"/>
      </g>
     </g>
    </g>
    <g id="xtick_5">
     <g id="line2d_13">
      <path d="M 58.811638 174.57222 
L 58.811638 56.345985 
" clip-path="url(#p7bdba60180)" style="fill: none; stroke-dasharray: 1.85,0.8; stroke-dashoffset: 0; stroke: #b0b0b0; stroke-opacity: 0.3; stroke-width: 0.5"/>
     </g>
     <g id="line2d_14">
      <defs>
       <path id="m99eaa1f82b" d="M 0 0 
L 0 -4 
" style="stroke: #000000; stroke-width: 0.5"/>
      </defs>
      <g>
       <use xlink:href="#m99eaa1f82b" x="58.811638" y="174.57222" style="stroke: #000000; stroke-width: 0.5"/>
      </g>
     </g>
     <g id="line2d_15">
      <defs>
       <path id="m9d4566f52f" d="M 0 0 
L 0 4 
" style="stroke: #000000; stroke-width: 0.5"/>
      </defs>
      <g>
       <use xlink:href="#m9d4566f52f" x="58.811638" y="56.345985" style="stroke: #000000; stroke-width: 0.5"/>
      </g>
     </g>
    </g>
    <g id="xtick_6">
     <g id="line2d_16">
      <path d="M 66.294175 174.57222 
L 66.294175 56.345985 
" clip-path="url(#p7bdba60180)" style="fill: none; stroke-dasharray: 1.85,0.8; stroke-dashoffset: 0; stroke: #b0b0b0; stroke-opacity: 0.3; stroke-width: 0.5"/>
     </g>
     <g id="line2d_17">
      <g>
       <use xlink:href="#m99eaa1f82b" x="66.294175" y="174.57222" style="stroke: #000000; stroke-width: 0.5"/>
      </g>
     </g>
     <g id="line2d_18">
      <g>
       <use xlink:href="#m9d4566f52f" x="66.294175" y="56.345985" style="stroke: #000000; stroke-width: 0.5"/>
      </g>
     </g>
    </g>
    <g id="xtick_7">
     <g id="line2d_19">
      <path d="M 72.775844 174.57222 
L 72.775844 56.345985 
" clip-path="url(#p7bdba60180)" style="fill: none; stroke-dasharray: 1.85,0.8; stroke-dashoffset: 0; stroke: #b0b0b0; stroke-opacity: 0.3; stroke-width: 0.5"/>
     </g>
     <g id="line2d_20">
      <g>
       <use xlink:href="#m99eaa1f82b" x="72.775844" y="174.57222" style="stroke: #000000; stroke-width: 0.5"/>
      </g>
     </g>
     <g id="line2d_21">
      <g>
       <use xlink:href="#m9d4566f52f" x="72.775844" y="56.345985" style="stroke: #000000; stroke-width: 0.5"/>
      </g>
     </g>
    </g>
    <g id="xtick_8">
     <g id="line2d_22">
      <path d="M 78.49308 174.57222 
L 78.49308 56.345985 
" clip-path="url(#p7bdba60180)" style="fill: none; stroke-dasharray: 1.85,0.8; stroke-dashoffset: 0; stroke: #b0b0b0; stroke-opacity: 0.3; stroke-width: 0.5"/>
     </g>
     <g id="line2d_23">
      <g>
       <use xlink:href="#m99eaa1f82b" x="78.49308" y="174.57222" style="stroke: #000000; stroke-width: 0.5"/>
      </g>
     </g>
     <g id="line2d_24">
      <g>
       <use xlink:href="#m9d4566f52f" x="78.49308" y="56.345985" style="stroke: #000000; stroke-width: 0.5"/>
      </g>
     </g>
    </g>
    <g id="xtick_9">
     <g id="line2d_25">
      <path d="M 117.252972 174.57222 
L 117.252972 56.345985 
" clip-path="url(#p7bdba60180)" style="fill: none; stroke-dasharray: 1.85,0.8; stroke-dashoffset: 0; stroke: #b0b0b0; stroke-opacity: 0.3; stroke-width: 0.5"/>
     </g>
     <g id="line2d_26">
      <g>
       <use xlink:href="#m99eaa1f82b" x="117.252972" y="174.57222" style="stroke: #000000; stroke-width: 0.5"/>
      </g>
     </g>
     <g id="line2d_27">
      <g>
       <use xlink:href="#m9d4566f52f" x="117.252972" y="56.345985" style="stroke: #000000; stroke-width: 0.5"/>
      </g>
     </g>
    </g>
    <g id="xtick_10">
     <g id="line2d_28">
      <path d="M 136.934415 174.57222 
L 136.934415 56.345985 
" clip-path="url(#p7bdba60180)" style="fill: none; stroke-dasharray: 1.85,0.8; stroke-dashoffset: 0; stroke: #b0b0b0; stroke-opacity: 0.3; stroke-width: 0.5"/>
     </g>
     <g id="line2d_29">
      <g>
       <use xlink:href="#m99eaa1f82b" x="136.934415" y="174.57222" style="stroke: #000000; stroke-width: 0.5"/>
      </g>
     </g>
     <g id="line2d_30">
      <g>
       <use xlink:href="#m9d4566f52f" x="136.934415" y="56.345985" style="stroke: #000000; stroke-width: 0.5"/>
      </g>
     </g>
    </g>
    <g id="xtick_11">
     <g id="line2d_31">
      <path d="M 150.898621 174.57222 
L 150.898621 56.345985 
" clip-path="url(#p7bdba60180)" style="fill: none; stroke-dasharray: 1.85,0.8; stroke-dashoffset: 0; stroke: #b0b0b0; stroke-opacity: 0.3; stroke-width: 0.5"/>
     </g>
     <g id="line2d_32">
      <g>
       <use xlink:href="#m99eaa1f82b" x="150.898621" y="174.57222" style="stroke: #000000; stroke-width: 0.5"/>
      </g>
     </g>
     <g id="line2d_33">
      <g>
       <use xlink:href="#m9d4566f52f" x="150.898621" y="56.345985" style="stroke: #000000; stroke-width: 0.5"/>
      </g>
     </g>
    </g>
    <g id="text_5">
     <!-- time step $\Delta t$ -->
     <g transform="translate(82.288326 201.097646) scale(0.1095 -0.1095)">
      <defs>
       <path id="TeXGyrePagellaX-Regular-55" d="M 2041 2790 
L 1164 2752 
L 1164 2993 
C 1164 3261 1184 3490 1235 3897 
L 1158 3968 
C 1004 3872 812 3789 614 3726 
C 633 3535 640 3414 640 3223 
L 640 2777 
L 140 2553 
L 140 2419 
L 627 2444 
L 627 612 
C 627 140 838 -64 1331 -64 
C 1478 -64 1632 -32 1670 12 
L 1977 351 
L 1894 460 
C 1734 371 1638 339 1516 339 
C 1267 339 1164 466 1164 778 
L 1164 2444 
L 1984 2444 
L 2041 2790 
z
" transform="scale(0.015625)"/>
       <path id="TeXGyrePagellaX-Regular-4a" d="M 1734 0 
L 1734 192 
L 1440 211 
C 1222 223 1203 268 1203 670 
L 1203 2983 
L 1145 3008 
C 819 2876 486 2789 147 2752 
L 147 2572 
L 384 2572 
C 640 2572 665 2528 665 2106 
L 665 670 
C 665 268 646 223 428 211 
L 134 192 
L 134 0 
C 403 12 665 19 934 19 
C 1203 19 1465 12 1734 0 
z
M 1254 4095 
C 1254 4281 1126 4416 940 4416 
C 742 4416 614 4287 614 4095 
C 614 3903 742 3775 934 3775 
C 1126 3775 1254 3903 1254 4095 
z
" transform="scale(0.015625)"/>
       <path id="TeXGyrePagellaX-Regular-4e" d="M 5561 -20 
L 5561 172 
L 5261 192 
C 5043 204 5024 249 5024 654 
L 5024 1975 
C 5024 2611 4653 3008 4064 3008 
C 3840 3008 3654 2950 3539 2847 
L 3052 2412 
C 2848 2835 2585 3008 2144 3008 
C 1907 3008 1728 2950 1612 2847 
L 1171 2437 
L 1171 2982 
L 1113 3008 
C 787 2867 454 2777 115 2739 
L 115 2560 
L 352 2560 
C 608 2560 633 2515 633 2092 
L 633 652 
C 633 249 614 204 396 192 
L 102 172 
L 102 -20 
C 371 -7 646 0 915 0 
C 1171 0 1420 -7 1676 -20 
L 1676 172 
L 1408 192 
C 1190 204 1171 249 1171 652 
L 1171 2009 
C 1171 2303 1593 2617 1977 2617 
C 2323 2617 2560 2290 2560 1802 
L 2560 654 
C 2560 249 2540 204 2323 192 
L 2028 172 
L 2028 -20 
C 2297 -7 2560 0 2828 0 
C 3097 0 3360 -7 3629 -20 
L 3629 172 
L 3334 192 
C 3116 204 3097 249 3097 654 
L 3097 2014 
C 3097 2303 3520 2617 3904 2617 
C 4249 2617 4486 2290 4486 1802 
L 4486 -20 
C 4653 -7 4825 0 4992 0 
C 5184 0 5369 -7 5561 -20 
z
" transform="scale(0.015625)"/>
       <path id="TeXGyrePagellaX-Regular-46" d="M 2867 1762 
C 2867 2520 2393 3008 1676 3008 
C 1440 3008 1164 2924 902 2770 
C 377 2460 166 2052 166 1377 
C 166 982 256 643 435 405 
C 684 70 1120 -128 1600 -128 
C 1836 -128 2073 -77 2336 38 
C 2508 108 2643 192 2668 230 
L 2796 443 
L 2713 505 
C 2304 267 2156 211 1881 211 
C 1465 211 1120 393 940 700 
C 819 907 774 1082 761 1446 
L 1696 1446 
C 2137 1446 2412 1465 2854 1535 
C 2860 1625 2867 1683 2867 1762 
z
M 2297 1683 
L 1580 1664 
C 1286 1664 1120 1670 774 1703 
C 774 2013 800 2157 883 2329 
C 1017 2618 1292 2796 1600 2796 
C 1811 2796 1977 2711 2092 2533 
C 2233 2316 2297 2125 2297 1683 
z
" transform="scale(0.015625)"/>
       <path id="TeXGyrePagellaX-Regular-54" d="M 2502 959 
C 2502 1158 2451 1305 2323 1433 
C 2156 1599 1945 1670 1382 1779 
C 857 1881 684 2009 684 2303 
C 684 2623 908 2803 1299 2803 
C 1728 2803 2054 2579 2054 2278 
L 2054 2131 
L 2233 2131 
C 2240 2502 2246 2655 2265 2854 
C 1926 2969 1696 3014 1433 3014 
C 691 3014 236 2662 236 2086 
C 236 1779 377 1561 672 1427 
C 844 1350 1184 1247 1619 1151 
C 1907 1075 2028 940 2028 697 
C 2028 352 1708 108 1254 108 
C 787 108 454 332 454 652 
L 454 915 
L 262 915 
C 262 473 243 281 192 25 
C 524 -84 774 -128 1068 -128 
C 1907 -128 2502 320 2502 947 
L 2502 959 
z
" transform="scale(0.015625)"/>
       <path id="TeXGyrePagellaX-Regular-51" d="M 3545 1740 
C 3545 2451 2956 3008 2214 3008 
C 1977 3008 1747 2943 1644 2847 
L 1120 2367 
L 1120 2982 
L 1062 3008 
C 736 2867 403 2777 64 2739 
L 64 2560 
L 300 2560 
C 556 2560 582 2515 582 2095 
L 582 -1132 
C 582 -1542 563 -1587 345 -1600 
L 51 -1620 
L 51 -1812 
C 320 -1799 582 -1792 851 -1792 
C 1120 -1792 1382 -1799 1651 -1812 
L 1651 -1620 
L 1356 -1600 
C 1139 -1587 1120 -1542 1120 -1132 
L 1120 96 
C 1312 -20 1516 -64 1804 -64 
C 1990 -64 2156 -26 2259 38 
L 2988 510 
C 3244 676 3545 1331 3545 1738 
L 3545 1740 
z
M 2988 1503 
C 2988 790 2560 262 1984 262 
C 1632 262 1369 376 1120 637 
L 1120 1961 
C 1120 2050 1152 2120 1235 2228 
C 1420 2470 1683 2591 2003 2591 
C 2604 2591 2988 2169 2988 1503 
L 2988 1503 
z
" transform="scale(0.015625)"/>
       <path id="pxmiaX-2" d="M 4237 38 
C 3846 742 3539 1523 3219 2265 
C 2905 2982 2566 3712 2316 4461 
L 2156 4461 
C 1836 3661 1478 2880 1126 2086 
C 819 1408 524 697 172 38 
L 217 -26 
C 896 0 1574 0 2259 0 
C 2905 0 3552 -7 4198 -26 
L 4237 38 
z
M 3437 236 
L 672 236 
C 1094 1376 1548 2489 2035 3609 
L 2080 3609 
C 2560 2502 3020 1376 3437 236 
z
" transform="scale(0.015625)"/>
       <path id="NewPXMI-47" d="M 1696 628 
L 1632 743 
L 1344 544 
C 1152 409 1030 352 953 352 
C 902 352 870 403 870 480 
C 870 647 947 1147 1145 2097 
L 1228 2496 
L 1913 2496 
L 1984 2816 
C 1740 2790 1523 2777 1280 2777 
C 1382 3390 1452 3710 1568 4062 
L 1497 4160 
C 1369 4081 1196 4003 998 3925 
L 838 2816 
C 556 2681 390 2611 275 2579 
L 262 2496 
L 800 2496 
L 441 679 
C 409 518 358 358 358 192 
C 358 32 428 -64 550 -64 
C 774 -64 992 64 1497 467 
C 1612 557 1574 531 1696 628 
z
" transform="scale(0.015625)"/>
      </defs>
      <use xlink:href="#TeXGyrePagellaX-Regular-55" transform="scale(0.996264)"/>
      <use xlink:href="#TeXGyrePagellaX-Regular-4a" transform="translate(32.478228 0) scale(0.996264)"/>
      <use xlink:href="#TeXGyrePagellaX-Regular-4e" transform="translate(61.469547 0) scale(0.996264)"/>
      <use xlink:href="#TeXGyrePagellaX-Regular-46" transform="translate(149.439693 0) scale(0.996264)"/>
      <use xlink:href="#TeXGyrePagellaX-Regular-54" transform="translate(222.067348 0) scale(0.996264)"/>
      <use xlink:href="#TeXGyrePagellaX-Regular-55" transform="translate(262.814479 0) scale(0.996264)"/>
      <use xlink:href="#TeXGyrePagellaX-Regular-46" transform="translate(295.292707 0) scale(0.996264)"/>
      <use xlink:href="#TeXGyrePagellaX-Regular-51" transform="translate(343.013762 0) scale(0.996264)"/>
      <use xlink:href="#pxmiaX-2" transform="translate(427.795805 0) scale(0.996264)"/>
      <use xlink:href="#NewPXMI-47" transform="translate(497.434684 0) scale(0.996264)"/>
     </g>
    </g>
   </g>
   <g id="matplotlib.axis_2">
    <g id="ytick_1">
     <g id="line2d_34">
      <path d="M 54.58807 162.837817 
L 168.090266 162.837817 
" clip-path="url(#p7bdba60180)" style="fill: none; stroke-dasharray: 1.85,0.8; stroke-dashoffset: 0; stroke: #b0b0b0; stroke-opacity: 0.3; stroke-width: 0.5"/>
     </g>
     <g id="line2d_35">
      <defs>
       <path id="mbaee27b83c" d="M 0 0 
L 6 0 
" style="stroke: #000000; stroke-width: 0.5"/>
      </defs>
      <g>
       <use xlink:href="#mbaee27b83c" x="54.58807" y="162.837817" style="stroke: #000000; stroke-width: 0.5"/>
      </g>
     </g>
     <g id="line2d_36">
      <defs>
       <path id="mbf72eb3b34" d="M 0 0 
L -6 0 
" style="stroke: #000000; stroke-width: 0.5"/>
      </defs>
      <g>
       <use xlink:href="#mbf72eb3b34" x="168.090266" y="162.837817" style="stroke: #000000; stroke-width: 0.5"/>
      </g>
     </g>
     <g id="text_6">
      <!-- $\mathdefault{10^{-11}}$ -->
      <g transform="translate(26.87689 167.59539) scale(0.1095 -0.1095)">
       <defs>
        <path id="pxsys-1" d="M 3865 1542 
L 3865 1920 
L 416 1920 
L 416 1542 
L 3865 1542 
z
" transform="scale(0.015625)"/>
       </defs>
       <use xlink:href="#TeXGyrePagellaX-Regular-12" transform="scale(0.996264)"/>
       <use xlink:href="#TeXGyrePagellaX-Regular-11" transform="translate(49.8132 0) scale(0.996264)"/>
       <use xlink:href="#pxsys-1" transform="translate(99.626401 36.164371) scale(0.727268)"/>
       <use xlink:href="#TeXGyrePagellaX-Regular-12" transform="translate(148.280633 36.164371) scale(0.727268)"/>
       <use xlink:href="#TeXGyrePagellaX-Regular-12" transform="translate(184.644056 36.164371) scale(0.727268)"/>
      </g>
     </g>
    </g>
    <g id="ytick_2">
     <g id="line2d_37">
      <path d="M 54.58807 148.59546 
L 168.090266 148.59546 
" clip-path="url(#p7bdba60180)" style="fill: none; stroke-dasharray: 1.85,0.8; stroke-dashoffset: 0; stroke: #b0b0b0; stroke-opacity: 0.3; stroke-width: 0.5"/>
     </g>
     <g id="line2d_38">
      <g>
       <use xlink:href="#mbaee27b83c" x="54.58807" y="148.59546" style="stroke: #000000; stroke-width: 0.5"/>
      </g>
     </g>
     <g id="line2d_39">
      <g>
       <use xlink:href="#mbf72eb3b34" x="168.090266" y="148.59546" style="stroke: #000000; stroke-width: 0.5"/>
      </g>
     </g>
     <g id="text_7">
      <!-- $\mathdefault{10^{-10}}$ -->
      <g transform="translate(26.87689 153.353033) scale(0.1095 -0.1095)">
       <use xlink:href="#TeXGyrePagellaX-Regular-12" transform="scale(0.996264)"/>
       <use xlink:href="#TeXGyrePagellaX-Regular-11" transform="translate(49.8132 0) scale(0.996264)"/>
       <use xlink:href="#pxsys-1" transform="translate(99.626401 36.164371) scale(0.727268)"/>
       <use xlink:href="#TeXGyrePagellaX-Regular-12" transform="translate(148.280633 36.164371) scale(0.727268)"/>
       <use xlink:href="#TeXGyrePagellaX-Regular-11" transform="translate(184.644056 36.164371) scale(0.727268)"/>
      </g>
     </g>
    </g>
    <g id="ytick_3">
     <g id="line2d_40">
      <path d="M 54.58807 134.353103 
L 168.090266 134.353103 
" clip-path="url(#p7bdba60180)" style="fill: none; stroke-dasharray: 1.85,0.8; stroke-dashoffset: 0; stroke: #b0b0b0; stroke-opacity: 0.3; stroke-width: 0.5"/>
     </g>
     <g id="line2d_41">
      <g>
       <use xlink:href="#mbaee27b83c" x="54.58807" y="134.353103" style="stroke: #000000; stroke-width: 0.5"/>
      </g>
     </g>
     <g id="line2d_42">
      <g>
       <use xlink:href="#mbf72eb3b34" x="168.090266" y="134.353103" style="stroke: #000000; stroke-width: 0.5"/>
      </g>
     </g>
     <g id="text_8">
      <!-- $\mathdefault{10^{-9}}$ -->
      <g transform="translate(30.861946 139.072823) scale(0.1095 -0.1095)">
       <defs>
        <path id="TeXGyrePagellaX-Regular-1a" d="M 2924 2684 
C 2924 3759 2406 4416 1561 4416 
C 742 4416 128 3778 128 2925 
C 128 2194 608 1657 1273 1657 
C 1491 1657 1740 1727 1856 1823 
L 2304 2194 
C 2252 1114 1555 318 396 33 
L 396 -19 
L 614 -128 
C 1324 104 1632 253 1977 551 
C 2598 1088 2924 1830 2924 2684 
z
M 2368 3027 
C 2368 2442 2028 2048 1536 2048 
C 1024 2048 678 2499 678 3161 
C 678 3803 1011 4204 1536 4204 
C 1824 4204 2035 4083 2176 3829 
C 2291 3625 2368 3314 2368 3027 
z
" transform="scale(0.015625)"/>
       </defs>
       <use xlink:href="#TeXGyrePagellaX-Regular-12" transform="scale(0.996264)"/>
       <use xlink:href="#TeXGyrePagellaX-Regular-11" transform="translate(49.8132 0) scale(0.996264)"/>
       <use xlink:href="#pxsys-1" transform="translate(99.626401 36.164371) scale(0.727268)"/>
       <use xlink:href="#TeXGyrePagellaX-Regular-1a" transform="translate(148.280633 36.164371) scale(0.727268)"/>
      </g>
     </g>
    </g>
    <g id="ytick_4">
     <g id="line2d_43">
      <path d="M 54.58807 120.110745 
L 168.090266 120.110745 
" clip-path="url(#p7bdba60180)" style="fill: none; stroke-dasharray: 1.85,0.8; stroke-dashoffset: 0; stroke: #b0b0b0; stroke-opacity: 0.3; stroke-width: 0.5"/>
     </g>
     <g id="line2d_44">
      <g>
       <use xlink:href="#mbaee27b83c" x="54.58807" y="120.110745" style="stroke: #000000; stroke-width: 0.5"/>
      </g>
     </g>
     <g id="line2d_45">
      <g>
       <use xlink:href="#mbf72eb3b34" x="168.090266" y="120.110745" style="stroke: #000000; stroke-width: 0.5"/>
      </g>
     </g>
     <g id="text_9">
      <!-- $\mathdefault{10^{-8}}$ -->
      <g transform="translate(30.861946 124.830466) scale(0.1095 -0.1095)">
       <defs>
        <path id="TeXGyrePagellaX-Regular-19" d="M 2969 1324 
C 2969 1836 2732 2111 2003 2444 
C 2585 2841 2790 3110 2790 3494 
C 2790 4044 2336 4416 1657 4416 
C 896 4416 339 3929 339 3257 
C 339 2822 512 2579 1075 2214 
C 812 2092 704 2022 563 1887 
C 320 1638 192 1350 192 1017 
C 192 358 723 -128 1446 -128 
C 2278 -128 2969 524 2969 1318 
L 2969 1324 
z
M 2464 1049 
C 2464 512 2060 89 1542 89 
C 998 89 646 473 646 1068 
C 646 1536 832 1830 1305 2118 
L 1817 1888 
C 2220 1708 2464 1395 2464 1049 
z
M 2355 3417 
C 2355 3052 2195 2803 1779 2534 
L 1427 2707 
C 1024 2911 819 3167 819 3487 
C 819 3910 1126 4198 1580 4198 
C 2048 4198 2355 3891 2355 3423 
L 2355 3417 
z
" transform="scale(0.015625)"/>
       </defs>
       <use xlink:href="#TeXGyrePagellaX-Regular-12" transform="scale(0.996264)"/>
       <use xlink:href="#TeXGyrePagellaX-Regular-11" transform="translate(49.8132 0) scale(0.996264)"/>
       <use xlink:href="#pxsys-1" transform="translate(99.626401 36.164371) scale(0.727268)"/>
       <use xlink:href="#TeXGyrePagellaX-Regular-19" transform="translate(148.280633 36.164371) scale(0.727268)"/>
      </g>
     </g>
    </g>
    <g id="ytick_5">
     <g id="line2d_46">
      <path d="M 54.58807 105.868388 
L 168.090266 105.868388 
" clip-path="url(#p7bdba60180)" style="fill: none; stroke-dasharray: 1.85,0.8; stroke-dashoffset: 0; stroke: #b0b0b0; stroke-opacity: 0.3; stroke-width: 0.5"/>
     </g>
     <g id="line2d_47">
      <g>
       <use xlink:href="#mbaee27b83c" x="54.58807" y="105.868388" style="stroke: #000000; stroke-width: 0.5"/>
      </g>
     </g>
     <g id="line2d_48">
      <g>
       <use xlink:href="#mbf72eb3b34" x="168.090266" y="105.868388" style="stroke: #000000; stroke-width: 0.5"/>
      </g>
     </g>
     <g id="text_10">
      <!-- $\mathdefault{10^{-7}}$ -->
      <g transform="translate(30.861946 110.588108) scale(0.1095 -0.1095)">
       <defs>
        <path id="TeXGyrePagellaX-Regular-18" d="M 3180 4198 
L 3180 4390 
C 2489 4364 2432 4358 1747 4358 
C 1075 4358 966 4364 345 4390 
L 281 4358 
C 281 4358 300 3948 300 3688 
C 300 3434 281 3041 281 3041 
L 473 3041 
L 518 3396 
C 569 3789 614 3840 908 3840 
L 2617 3840 
C 2361 3320 2163 2953 1920 2566 
L 358 82 
L 416 0 
C 416 0 595 19 710 19 
C 825 19 1004 0 1004 0 
C 1273 690 1440 1102 2009 2110 
L 3180 4198 
z
" transform="scale(0.015625)"/>
       </defs>
       <use xlink:href="#TeXGyrePagellaX-Regular-12" transform="scale(0.996264)"/>
       <use xlink:href="#TeXGyrePagellaX-Regular-11" transform="translate(49.8132 0) scale(0.996264)"/>
       <use xlink:href="#pxsys-1" transform="translate(99.626401 36.164371) scale(0.727268)"/>
       <use xlink:href="#TeXGyrePagellaX-Regular-18" transform="translate(148.280633 36.164371) scale(0.727268)"/>
      </g>
     </g>
    </g>
    <g id="ytick_6">
     <g id="line2d_49">
      <path d="M 54.58807 91.626031 
L 168.090266 91.626031 
" clip-path="url(#p7bdba60180)" style="fill: none; stroke-dasharray: 1.85,0.8; stroke-dashoffset: 0; stroke: #b0b0b0; stroke-opacity: 0.3; stroke-width: 0.5"/>
     </g>
     <g id="line2d_50">
      <g>
       <use xlink:href="#mbaee27b83c" x="54.58807" y="91.626031" style="stroke: #000000; stroke-width: 0.5"/>
      </g>
     </g>
     <g id="line2d_51">
      <g>
       <use xlink:href="#mbf72eb3b34" x="168.090266" y="91.626031" style="stroke: #000000; stroke-width: 0.5"/>
      </g>
     </g>
     <g id="text_11">
      <!-- $\mathdefault{10^{-6}}$ -->
      <g transform="translate(30.861946 96.345751) scale(0.1095 -0.1095)">
       <use xlink:href="#TeXGyrePagellaX-Regular-12" transform="scale(0.996264)"/>
       <use xlink:href="#TeXGyrePagellaX-Regular-11" transform="translate(49.8132 0) scale(0.996264)"/>
       <use xlink:href="#pxsys-1" transform="translate(99.626401 36.164371) scale(0.727268)"/>
       <use xlink:href="#TeXGyrePagellaX-Regular-17" transform="translate(148.280633 36.164371) scale(0.727268)"/>
      </g>
     </g>
    </g>
    <g id="ytick_7">
     <g id="line2d_52">
      <path d="M 54.58807 77.383674 
L 168.090266 77.383674 
" clip-path="url(#p7bdba60180)" style="fill: none; stroke-dasharray: 1.85,0.8; stroke-dashoffset: 0; stroke: #b0b0b0; stroke-opacity: 0.3; stroke-width: 0.5"/>
     </g>
     <g id="line2d_53">
      <g>
       <use xlink:href="#mbaee27b83c" x="54.58807" y="77.383674" style="stroke: #000000; stroke-width: 0.5"/>
      </g>
     </g>
     <g id="line2d_54">
      <g>
       <use xlink:href="#mbf72eb3b34" x="168.090266" y="77.383674" style="stroke: #000000; stroke-width: 0.5"/>
      </g>
     </g>
     <g id="text_12">
      <!-- $\mathdefault{10^{-5}}$ -->
      <g transform="translate(30.861946 82.103394) scale(0.1095 -0.1095)">
       <use xlink:href="#TeXGyrePagellaX-Regular-12" transform="scale(0.996264)"/>
       <use xlink:href="#TeXGyrePagellaX-Regular-11" transform="translate(49.8132 0) scale(0.996264)"/>
       <use xlink:href="#pxsys-1" transform="translate(99.626401 36.164371) scale(0.727268)"/>
       <use xlink:href="#TeXGyrePagellaX-Regular-16" transform="translate(148.280633 36.164371) scale(0.727268)"/>
      </g>
     </g>
    </g>
    <g id="ytick_8">
     <g id="line2d_55">
      <path d="M 54.58807 63.141317 
L 168.090266 63.141317 
" clip-path="url(#p7bdba60180)" style="fill: none; stroke-dasharray: 1.85,0.8; stroke-dashoffset: 0; stroke: #b0b0b0; stroke-opacity: 0.3; stroke-width: 0.5"/>
     </g>
     <g id="line2d_56">
      <g>
       <use xlink:href="#mbaee27b83c" x="54.58807" y="63.141317" style="stroke: #000000; stroke-width: 0.5"/>
      </g>
     </g>
     <g id="line2d_57">
      <g>
       <use xlink:href="#mbf72eb3b34" x="168.090266" y="63.141317" style="stroke: #000000; stroke-width: 0.5"/>
      </g>
     </g>
     <g id="text_13">
      <!-- $\mathdefault{10^{-4}}$ -->
      <g transform="translate(30.861946 67.898889) scale(0.1095 -0.1095)">
       <defs>
        <path id="TeXGyrePagellaX-Regular-15" d="M 3020 -20 
L 3020 172 
L 2713 192 
C 2400 211 2329 293 2329 675 
L 2329 1152 
C 2707 1152 2841 1145 3020 1126 
L 3020 1580 
C 3020 1580 2707 1561 2502 1561 
L 2329 1561 
L 2329 2445 
C 2329 3576 2342 4123 2374 4384 
L 2297 4416 
L 1824 4244 
L 12 1299 
L 83 1152 
L 1792 1152 
L 1792 675 
C 1792 293 1721 204 1408 192 
L 1011 172 
L 1011 -20 
C 1356 -7 1696 0 2041 0 
C 2368 0 2694 -7 3020 -20 
z
M 1792 1561 
L 416 1561 
L 1792 3799 
L 1792 1561 
z
" transform="scale(0.015625)"/>
       </defs>
       <use xlink:href="#TeXGyrePagellaX-Regular-12" transform="scale(0.996264)"/>
       <use xlink:href="#TeXGyrePagellaX-Regular-11" transform="translate(49.8132 0) scale(0.996264)"/>
       <use xlink:href="#pxsys-1" transform="translate(99.626401 36.164371) scale(0.727268)"/>
       <use xlink:href="#TeXGyrePagellaX-Regular-15" transform="translate(148.280633 36.164371) scale(0.727268)"/>
      </g>
     </g>
    </g>
    <g id="text_14">
     <!-- scaled full-state RMS error -->
     <g transform="translate(19.800536 179.489892) rotate(-90) scale(0.1095 -0.1095)">
      <defs>
       <path id="TeXGyrePagellaX-Regular-44" d="M 2643 294 
L 2579 390 
C 2342 262 2137 204 1907 204 
C 1196 204 729 756 729 1603 
C 729 2290 1049 2675 1625 2675 
C 1907 2675 2214 2547 2329 2386 
L 2374 1995 
L 2553 1995 
C 2553 2290 2585 2553 2643 2783 
C 2387 2937 2163 3008 1900 3008 
C 1593 3008 1235 2886 851 2643 
C 403 2360 166 1911 166 1347 
C 166 480 774 -128 1632 -128 
C 1964 -128 2444 -7 2508 89 
L 2643 294 
z
" transform="scale(0.015625)"/>
       <path id="TeXGyrePagellaX-Regular-42" d="M 3014 -20 
L 3014 172 
L 2764 185 
C 2611 192 2585 243 2585 557 
L 2585 1731 
C 2585 2668 2316 3008 1574 3008 
C 1299 3008 1043 2937 800 2790 
L 460 2585 
L 460 2168 
L 627 2123 
L 710 2322 
C 838 2623 908 2668 1203 2668 
C 1804 2668 2054 2431 2073 1847 
L 1440 1731 
C 569 1571 204 1269 204 711 
C 204 224 505 -64 1011 -64 
C 1126 -64 1235 -45 1280 -13 
L 2073 537 
L 2041 -7 
C 2208 -7 2374 0 2540 0 
C 2700 0 2854 -7 3014 -20 
z
M 2073 806 
C 1888 544 1484 300 1235 300 
C 979 300 755 537 755 812 
C 755 1049 883 1273 1075 1395 
C 1235 1491 1587 1580 2073 1651 
L 2073 806 
z
" transform="scale(0.015625)"/>
       <path id="TeXGyrePagellaX-Regular-4d" d="M 1734 -20 
L 1734 172 
L 1440 192 
C 1222 204 1203 249 1203 653 
L 1203 4616 
L 1145 4672 
C 864 4554 652 4499 147 4416 
L 147 4236 
L 505 4236 
C 620 4236 665 4166 665 3974 
L 665 653 
C 665 249 646 204 428 192 
L 134 172 
L 134 -20 
C 403 -7 665 0 934 0 
C 1203 0 1465 -7 1734 -20 
z
" transform="scale(0.015625)"/>
       <path id="TeXGyrePagellaX-Regular-45" d="M 3705 -20 
L 3705 172 
L 3411 192 
C 3193 204 3174 249 3174 653 
L 3174 4616 
L 3116 4672 
C 2835 4554 2624 4499 2118 4416 
L 2118 4236 
L 2476 4236 
C 2592 4236 2636 4166 2636 3974 
L 2636 2803 
C 2278 2956 2099 3008 1875 3008 
C 1702 3008 1548 2969 1388 2886 
L 825 2591 
C 460 2399 224 1930 224 1385 
C 224 872 396 448 710 192 
C 928 19 1228 -64 1644 -64 
C 1772 -64 1920 -39 1952 -13 
L 2662 582 
L 2630 -7 
C 2796 -7 2956 0 3123 0 
C 3315 0 3513 -7 3705 -20 
z
M 2636 1417 
C 2636 1000 2624 936 2540 788 
C 2361 498 2048 300 1747 300 
C 1184 300 780 843 780 1602 
C 780 2298 1126 2707 1702 2707 
C 1945 2707 2201 2624 2425 2470 
C 2560 2381 2636 2298 2636 2247 
L 2636 1417 
z
" transform="scale(0.015625)"/>
       <path id="TeXGyrePagellaX-Regular-47" d="M 2182 4110 
L 2182 4601 
C 2048 4652 1971 4672 1888 4672 
C 1683 4672 1459 4563 1318 4403 
L 947 3984 
C 761 3775 678 3491 678 3074 
L 678 2809 
L 236 2611 
L 236 2470 
L 678 2496 
L 678 659 
C 678 250 659 204 441 192 
L 147 172 
L 147 -20 
C 416 -7 678 0 947 0 
C 1216 0 1478 -7 1747 -20 
L 1747 172 
L 1452 192 
C 1235 204 1216 250 1216 659 
L 1216 2496 
L 2009 2496 
L 2054 2834 
C 1772 2815 1497 2809 1216 2809 
L 1216 3346 
C 1216 4072 1299 4249 1664 4249 
C 1836 4249 1952 4205 2105 4072 
L 2182 4110 
z
" transform="scale(0.015625)"/>
       <path id="TeXGyrePagellaX-Regular-56" d="M 3718 -20 
L 3718 172 
L 3456 192 
C 3238 204 3219 243 3219 652 
L 3219 2981 
L 3161 3008 
C 2835 2870 2502 2778 2163 2739 
L 2163 2560 
L 2400 2560 
C 2656 2560 2681 2515 2681 2092 
L 2681 1049 
C 2681 908 2592 729 2444 582 
C 2265 415 2060 326 1811 326 
C 1587 326 1408 396 1305 517 
C 1216 619 1171 816 1171 1096 
L 1171 2981 
L 1113 3008 
C 787 2870 454 2778 115 2739 
L 115 2560 
L 352 2560 
C 608 2560 633 2515 633 2095 
L 633 1026 
C 633 580 672 383 787 224 
C 928 32 1171 -64 1536 -64 
C 1824 -64 2080 25 2252 185 
L 2681 580 
C 2681 396 2675 294 2656 -7 
C 2835 -7 3008 0 3187 0 
C 3366 0 3539 -7 3718 -20 
z
" transform="scale(0.015625)"/>
       <path id="TeXGyrePagellaX-Regular-e" d="M 1996 1823 
L 1964 1856 
L 281 1856 
L 108 1427 
L 140 1395 
L 1804 1395 
L 1996 1823 
z
" transform="scale(0.015625)"/>
       <path id="TeXGyrePagellaX-Regular-33" d="M 4281 -14 
L 4281 178 
C 4077 198 3974 236 3891 345 
L 2438 2239 
C 2796 2329 2963 2399 3174 2547 
C 3507 2783 3686 3103 3686 3475 
C 3686 4089 3270 4435 2438 4435 
C 2054 4435 1676 4416 1292 4416 
C 921 4416 556 4422 185 4435 
L 185 4243 
L 448 4223 
C 742 4204 774 4147 774 3647 
L 774 768 
C 774 262 742 211 448 192 
L 140 172 
L 140 -20 
C 454 -7 761 0 1075 0 
C 1388 0 1702 -7 2016 -20 
L 2016 172 
L 1708 192 
C 1414 211 1382 262 1382 768 
L 1382 4115 
C 1600 4166 1792 4191 2009 4191 
C 2675 4191 3046 3884 3046 3339 
C 3046 2749 2579 2377 1836 2377 
L 1651 2377 
L 1651 2275 
C 1792 2121 1843 2050 1945 1909 
C 2425 1268 2899 621 3385 -20 
C 3533 -7 3673 0 3821 0 
C 3974 0 4128 -7 4281 -20 
L 4281 -14 
z
" transform="scale(0.015625)"/>
       <path id="TeXGyrePagellaX-Regular-2e" d="M 5926 -20 
L 5926 172 
L 5619 192 
C 5325 211 5293 262 5293 768 
L 5293 3647 
C 5293 4147 5325 4204 5619 4223 
L 5888 4243 
L 5888 4435 
C 5689 4422 5491 4416 5293 4416 
C 5088 4416 4889 4422 4685 4435 
L 3008 871 
L 1318 4435 
C 1113 4422 915 4416 710 4416 
C 505 4416 307 4422 102 4435 
L 102 4243 
L 384 4223 
C 678 4204 710 4147 710 3647 
L 710 768 
C 710 268 678 211 384 192 
L 102 172 
L 102 -20 
C 352 -7 595 0 844 0 
C 1100 0 1356 -7 1612 -20 
L 1612 172 
L 1331 192 
C 1036 211 1004 268 1004 768 
L 1004 3704 
L 2790 -84 
L 2918 -84 
C 3078 262 3129 442 3264 730 
C 3737 1717 4185 2736 4685 3704 
L 4685 768 
C 4685 262 4659 217 4358 192 
L 4141 172 
L 4141 -20 
C 4416 -7 4685 0 4960 0 
C 5280 0 5606 -7 5926 -20 
z
" transform="scale(0.015625)"/>
       <path id="TeXGyrePagellaX-Regular-34" d="M 1299 -128 
C 2412 -128 3219 358 3219 1499 
C 3219 1788 3129 1967 2956 2127 
C 2732 2339 2464 2448 1747 2544 
C 966 2647 691 2858 691 3352 
C 691 3890 1094 4275 1657 4275 
C 1907 4275 2144 4224 2316 4127 
C 2528 4018 2598 3922 2617 3736 
L 2656 3371 
L 2860 3371 
C 2860 3711 2886 3929 2950 4275 
C 2438 4479 2150 4544 1798 4544 
C 844 4544 153 3942 153 3102 
C 153 2788 236 2557 422 2384 
C 640 2185 934 2083 1555 1999 
C 2048 1929 2272 1852 2438 1711 
C 2604 1570 2681 1390 2681 1147 
C 2681 570 2201 153 1536 153 
C 1024 153 524 403 492 666 
L 441 1095 
L 236 1095 
C 243 980 243 877 243 839 
C 243 544 230 403 192 115 
C 556 -45 928 -128 1299 -128 
z
" transform="scale(0.015625)"/>
       <path id="TeXGyrePagellaX-Regular-53" d="M 2393 2937 
C 2323 2982 2208 3008 2092 3008 
C 1900 3001 1696 2899 1561 2739 
L 1203 2316 
L 1203 2976 
L 1145 3008 
C 819 2867 486 2777 147 2739 
L 147 2560 
L 384 2560 
C 640 2560 665 2515 665 2092 
L 665 652 
C 665 249 646 204 428 192 
L 134 172 
L 134 -20 
C 396 -7 659 0 921 0 
C 1228 0 1529 -7 1836 -20 
L 1836 172 
L 1504 192 
C 1216 211 1203 230 1203 652 
L 1203 1753 
C 1203 2143 1459 2463 1772 2463 
C 1964 2463 2099 2374 2201 2169 
L 2336 2169 
L 2393 2937 
z
" transform="scale(0.015625)"/>
       <path id="TeXGyrePagellaX-Regular-50" d="M 3289 1523 
C 3289 2391 2662 3014 1785 3014 
C 851 3014 204 2353 204 1395 
C 204 488 774 -128 1600 -128 
C 2585 -128 3289 559 3289 1523 
z
M 2694 1285 
C 2694 546 2368 83 1849 83 
C 1222 83 800 700 800 1613 
C 800 2385 1107 2803 1670 2803 
C 2259 2803 2694 2160 2694 1285 
z
" transform="scale(0.015625)"/>
      </defs>
      <use xlink:href="#TeXGyrePagellaX-Regular-54" transform="scale(0.996264)"/>
      <use xlink:href="#TeXGyrePagellaX-Regular-44" transform="translate(42.241573 0) scale(0.996264)"/>
      <use xlink:href="#TeXGyrePagellaX-Regular-42" transform="translate(86.475719 0) scale(0.996264)"/>
      <use xlink:href="#TeXGyrePagellaX-Regular-4d" transform="translate(136.28892 0) scale(0.996264)"/>
      <use xlink:href="#TeXGyrePagellaX-Regular-46" transform="translate(165.280239 0) scale(0.996264)"/>
      <use xlink:href="#TeXGyrePagellaX-Regular-45" transform="translate(213.001294 0) scale(0.996264)"/>
      <use xlink:href="#TeXGyrePagellaX-Regular-47" transform="translate(298.779631 0) scale(0.996264)"/>
      <use xlink:href="#TeXGyrePagellaX-Regular-56" transform="translate(331.955241 0) scale(0.996264)"/>
      <use xlink:href="#TeXGyrePagellaX-Regular-4d" transform="translate(392.029918 0) scale(0.996264)"/>
      <use xlink:href="#TeXGyrePagellaX-Regular-4d" transform="translate(421.021237 0) scale(0.996264)"/>
      <use xlink:href="#TeXGyrePagellaX-Regular-e" transform="translate(450.012557 0) scale(0.996264)"/>
      <use xlink:href="#TeXGyrePagellaX-Regular-54" transform="translate(483.188166 0) scale(0.996264)"/>
      <use xlink:href="#TeXGyrePagellaX-Regular-55" transform="translate(523.935298 0) scale(0.996264)"/>
      <use xlink:href="#TeXGyrePagellaX-Regular-42" transform="translate(556.413526 0) scale(0.996264)"/>
      <use xlink:href="#TeXGyrePagellaX-Regular-55" transform="translate(606.226726 0) scale(0.996264)"/>
      <use xlink:href="#TeXGyrePagellaX-Regular-46" transform="translate(638.704954 0) scale(0.996264)"/>
      <use xlink:href="#TeXGyrePagellaX-Regular-33" transform="translate(711.33261 0) scale(0.996264)"/>
      <use xlink:href="#TeXGyrePagellaX-Regular-2e" transform="translate(777.883064 0) scale(0.996264)"/>
      <use xlink:href="#TeXGyrePagellaX-Regular-34" transform="translate(872.129645 0) scale(0.996264)"/>
      <use xlink:href="#TeXGyrePagellaX-Regular-46" transform="translate(949.34006 0) scale(0.996264)"/>
      <use xlink:href="#TeXGyrePagellaX-Regular-53" transform="translate(997.061115 0) scale(0.996264)"/>
      <use xlink:href="#TeXGyrePagellaX-Regular-53" transform="translate(1036.413589 0) scale(0.996264)"/>
      <use xlink:href="#TeXGyrePagellaX-Regular-50" transform="translate(1075.766063 0) scale(0.996264)"/>
      <use xlink:href="#TeXGyrePagellaX-Regular-53" transform="translate(1130.162024 0) scale(0.996264)"/>
     </g>
    </g>
   </g>
   <g id="line2d_58">
    <path d="M 60.793154 171.954889 
L 94.438803 159.093186 
L 128.084452 146.231749 
L 161.730101 133.371026 
" clip-path="url(#p7bdba60180)" style="fill: none; stroke: #5c3d9b; stroke-width: 1.1; stroke-linecap: square"/>
    <defs>
     <path id="me7a1789d9f" d="M 0 1.5 
C 0.397805 1.5 0.77937 1.341951 1.06066 1.06066 
C 1.341951 0.77937 1.5 0.397805 1.5 0 
C 1.5 -0.397805 1.341951 -0.77937 1.06066 -1.06066 
C 0.77937 -1.341951 0.397805 -1.5 0 -1.5 
C -0.397805 -1.5 -0.77937 -1.341951 -1.06066 -1.06066 
C -1.341951 -0.77937 -1.5 -0.397805 -1.5 0 
C -1.5 0.397805 -1.341951 0.77937 -1.06066 1.06066 
C -0.77937 1.341951 -0.397805 1.5 0 1.5 
z
" style="stroke: #5c3d9b"/>
    </defs>
    <g clip-path="url(#p7bdba60180)">
     <use xlink:href="#me7a1789d9f" x="60.793154" y="171.954889" style="fill: #5c3d9b; stroke: #5c3d9b"/>
     <use xlink:href="#me7a1789d9f" x="94.438803" y="159.093186" style="fill: #5c3d9b; stroke: #5c3d9b"/>
     <use xlink:href="#me7a1789d9f" x="128.084452" y="146.231749" style="fill: #5c3d9b; stroke: #5c3d9b"/>
     <use xlink:href="#me7a1789d9f" x="161.730101" y="133.371026" style="fill: #5c3d9b; stroke: #5c3d9b"/>
    </g>
   </g>
   <g id="line2d_59">
    <path d="M 60.793154 78.361248 
L 94.438803 74.073886 
L 128.084452 69.786536 
L 161.730101 65.499204 
" clip-path="url(#p7bdba60180)" style="fill: none; stroke-dasharray: 4.07,1.76; stroke-dashoffset: 0; stroke: #c76d24; stroke-width: 1.1"/>
    <defs>
     <path id="m702eed34d6" d="M -1.5 1.5 
L 1.5 1.5 
L 1.5 -1.5 
L -1.5 -1.5 
z
" style="stroke: #c76d24; stroke-linejoin: miter"/>
    </defs>
    <g clip-path="url(#p7bdba60180)">
     <use xlink:href="#m702eed34d6" x="60.793154" y="78.361248" style="fill: #c76d24; stroke: #c76d24; stroke-linejoin: miter"/>
     <use xlink:href="#m702eed34d6" x="94.438803" y="74.073886" style="fill: #c76d24; stroke: #c76d24; stroke-linejoin: miter"/>
     <use xlink:href="#m702eed34d6" x="128.084452" y="69.786536" style="fill: #c76d24; stroke: #c76d24; stroke-linejoin: miter"/>
     <use xlink:href="#m702eed34d6" x="161.730101" y="65.499204" style="fill: #c76d24; stroke: #c76d24; stroke-linejoin: miter"/>
    </g>
   </g>
   <g id="line2d_60">
    <path d="M 60.793154 132.307068 
L 94.438803 123.73248 
L 128.084452 115.158044 
L 161.730101 106.583878 
" clip-path="url(#p7bdba60180)" style="fill: none; stroke-dasharray: 7.04,1.76,1.1,1.76; stroke-dashoffset: 0; stroke: #0e8a85; stroke-width: 1.1"/>
    <defs>
     <path id="mffc066ecdd" d="M 0 -1.5 
L -1.5 1.5 
L 1.5 1.5 
z
" style="stroke: #0e8a85; stroke-linejoin: miter"/>
    </defs>
    <g clip-path="url(#p7bdba60180)">
     <use xlink:href="#mffc066ecdd" x="60.793154" y="132.307068" style="fill: #0e8a85; stroke: #0e8a85; stroke-linejoin: miter"/>
     <use xlink:href="#mffc066ecdd" x="94.438803" y="123.73248" style="fill: #0e8a85; stroke: #0e8a85; stroke-linejoin: miter"/>
     <use xlink:href="#mffc066ecdd" x="128.084452" y="115.158044" style="fill: #0e8a85; stroke: #0e8a85; stroke-linejoin: miter"/>
     <use xlink:href="#mffc066ecdd" x="161.730101" y="106.583878" style="fill: #0e8a85; stroke: #0e8a85; stroke-linejoin: miter"/>
    </g>
   </g>
   <g id="patch_3">
    <path d="M 54.58807 174.57222 
L 54.58807 56.345985 
" style="fill: none; stroke: #000000; stroke-width: 0.5; stroke-linejoin: miter; stroke-linecap: square"/>
   </g>
   <g id="patch_4">
    <path d="M 168.090266 174.57222 
L 168.090266 56.345985 
" style="fill: none; stroke: #000000; stroke-width: 0.5; stroke-linejoin: miter; stroke-linecap: square"/>
   </g>
   <g id="patch_5">
    <path d="M 54.58807 174.57222 
L 168.090266 174.57222 
" style="fill: none; stroke: #000000; stroke-width: 0.5; stroke-linejoin: miter; stroke-linecap: square"/>
   </g>
   <g id="patch_6">
    <path d="M 54.58807 56.345985 
L 168.090266 56.345985 
" style="fill: none; stroke: #000000; stroke-width: 0.5; stroke-linejoin: miter; stroke-linecap: square"/>
   </g>
   <g id="text_15">
    <!-- regular, $\sigma/h=0.6$ -->
    <g transform="translate(68.627191 50.345985) scale(0.1095 -0.1095)">
     <defs>
      <path id="TeXGyrePagellaX-Regular-48" d="M 3481 2687 
L 3456 2764 
L 2547 2739 
C 2310 2931 2080 3008 1766 3008 
C 1484 3008 1158 2918 896 2764 
C 537 2559 352 2246 352 1855 
C 352 1382 646 1055 1120 1004 
L 614 614 
C 550 512 518 428 518 332 
C 518 153 633 51 940 -39 
L 384 -340 
C 294 -367 204 -604 204 -804 
C 204 -1388 774 -1792 1587 -1792 
C 2553 -1792 3315 -1183 3315 -399 
C 3315 64 3008 384 2560 384 
L 1536 384 
C 1203 396 1049 473 1049 646 
C 1049 729 1100 799 1267 940 
C 1305 972 1318 985 1344 1011 
C 1408 1004 1446 998 1497 998 
C 1772 998 2112 1119 2374 1305 
C 2662 1516 2803 1772 2803 2112 
C 2803 2240 2784 2323 2732 2457 
L 3321 2457 
L 3481 2687 
z
M 2265 1920 
C 2265 1504 1996 1216 1606 1216 
C 1177 1188 889 1520 889 2011 
C 889 2502 1126 2790 1536 2790 
C 1971 2790 2265 2432 2265 1890 
L 2265 1920 
z
M 2809 -637 
C 2809 -1186 2304 -1594 1632 -1594 
C 1075 -1588 691 -1261 691 -788 
C 691 -500 857 -244 1113 -129 
C 1216 -84 1395 -64 1836 -64 
C 2560 -64 2809 -212 2809 -628 
L 2809 -637 
z
" transform="scale(0.015625)"/>
      <path id="TeXGyrePagellaX-Regular-d" d="M 1395 677 
L 1305 768 
C 1132 710 1017 671 678 574 
C 633 84 473 -335 102 -954 
L 192 -1024 
L 454 -902 
C 972 -225 1216 181 1395 677 
z
" transform="scale(0.015625)"/>
      <path id="NewPXMI_gnu-1b" d="M 3360 2956 
L 3328 2988 
C 3084 2854 2310 2918 1971 2880 
C 1734 2847 1510 2764 1292 2655 
C 518 2267 179 1840 179 942 
C 179 274 403 -128 1120 -128 
C 2144 -128 2777 605 2777 1605 
C 2777 2152 2598 2267 2169 2541 
L 2188 2560 
C 2534 2560 2905 2534 3244 2585 
C 3296 2700 3334 2828 3360 2956 
z
M 2342 1668 
C 2342 1038 2131 51 1318 51 
C 736 51 665 681 665 1127 
C 665 1827 889 2591 1734 2591 
C 1824 2591 1920 2573 2016 2560 
C 2291 2337 2342 2012 2342 1668 
z
" transform="scale(0.015625)"/>
      <path id="pxsys-a3" d="M 416 -1300 
L 768 -1300 
L 2681 4761 
L 2329 4761 
L 416 -1300 
z
" transform="scale(0.015625)"/>
      <path id="NewPXMI-3a" d="M 3014 542 
L 2950 660 
L 2784 548 
C 2598 424 2457 352 2393 352 
C 2348 352 2310 411 2310 483 
C 2310 548 2316 601 2355 745 
L 2764 2425 
C 2803 2595 2835 2796 2835 2905 
C 2835 3046 2764 3136 2649 3136 
C 2432 3136 2041 2924 1638 2582 
C 1414 2392 1312 2267 1011 1887 
L 883 1723 
L 1510 4668 
L 1433 4736 
C 1100 4577 870 4522 409 4480 
L 384 4345 
L 691 4345 
C 844 4345 908 4300 908 4191 
C 908 4139 902 4081 896 4036 
L 627 2530 
C 454 1539 198 411 64 6 
L 108 -64 
L 550 38 
C 652 785 761 1185 947 1532 
C 1228 2064 1894 2700 2163 2700 
C 2246 2700 2304 2641 2304 2556 
C 2304 2438 2265 2188 2208 1972 
L 1881 686 
C 1824 450 1798 307 1798 185 
C 1798 32 1868 -64 1990 -64 
C 2156 -64 2387 70 3014 542 
z
" transform="scale(0.015625)"/>
      <path id="pxmiaX-8d" d="M 416 2239 
L 3865 2246 
L 3865 2624 
L 416 2624 
L 416 2239 
z
M 416 838 
L 3865 838 
L 3865 1216 
L 416 1216 
L 416 838 
z
" transform="scale(0.015625)"/>
     </defs>
     <use xlink:href="#TeXGyrePagellaX-Regular-53" transform="scale(0.996264)"/>
     <use xlink:href="#TeXGyrePagellaX-Regular-46" transform="translate(39.352474 0) scale(0.996264)"/>
     <use xlink:href="#TeXGyrePagellaX-Regular-48" transform="translate(87.073529 0) scale(0.996264)"/>
     <use xlink:href="#TeXGyrePagellaX-Regular-56" transform="translate(142.465784 0) scale(0.996264)"/>
     <use xlink:href="#TeXGyrePagellaX-Regular-4d" transform="translate(202.540461 0) scale(0.996264)"/>
     <use xlink:href="#TeXGyrePagellaX-Regular-42" transform="translate(231.53178 0) scale(0.996264)"/>
     <use xlink:href="#TeXGyrePagellaX-Regular-53" transform="translate(281.344981 0) scale(0.996264)"/>
     <use xlink:href="#TeXGyrePagellaX-Regular-d" transform="translate(313.723637 0) scale(0.996264)"/>
     <use xlink:href="#NewPXMI_gnu-1b" transform="translate(366.525599 0) scale(0.996264)"/>
     <use xlink:href="#pxsys-a3" transform="translate(424.607809 0) scale(0.996264)"/>
     <use xlink:href="#NewPXMI-3a" transform="translate(478.804611 0) scale(0.996264)"/>
     <use xlink:href="#pxmiaX-8d" transform="translate(561.273095 0) scale(0.996264)"/>
     <use xlink:href="#TeXGyrePagellaX-Regular-11" transform="translate(655.597053 0) scale(0.996264)"/>
     <use xlink:href="#TeXGyrePagellaX-Regular-f" transform="translate(705.410254 0) scale(0.996264)"/>
     <use xlink:href="#TeXGyrePagellaX-Regular-17" transform="translate(730.316854 0) scale(0.996264)"/>
    </g>
   </g>
  </g>
  <g id="axes_2">
   <g id="patch_7">
    <path d="M 186.240442 174.57222 
L 299.742639 174.57222 
L 299.742639 56.345985 
L 186.240442 56.345985 
z
" style="fill: #ffffff"/>
   </g>
   <g id="matplotlib.axis_3">
    <g id="xtick_12">
     <g id="line2d_61">
      <path d="M 192.445527 174.57222 
L 192.445527 56.345985 
" clip-path="url(#p63fe906306)" style="fill: none; stroke-dasharray: 1.85,0.8; stroke-dashoffset: 0; stroke: #b0b0b0; stroke-opacity: 0.3; stroke-width: 0.5"/>
     </g>
     <g id="line2d_62">
      <g>
       <use xlink:href="#m6730c4d4c5" x="192.445527" y="174.57222" style="stroke: #000000; stroke-width: 0.5"/>
      </g>
     </g>
     <g id="line2d_63">
      <g>
       <use xlink:href="#m17c31672be" x="192.445527" y="56.345985" style="stroke: #000000; stroke-width: 0.5"/>
      </g>
     </g>
     <g id="text_16">
      <!-- .00625 -->
      <g transform="translate(177.445556 186.046756) scale(0.1095 -0.1095)">
       <use xlink:href="#TeXGyrePagellaX-Regular-f" transform="scale(0.996264)"/>
       <use xlink:href="#TeXGyrePagellaX-Regular-11" transform="translate(24.9066 0) scale(0.996264)"/>
       <use xlink:href="#TeXGyrePagellaX-Regular-11" transform="translate(74.719801 0) scale(0.996264)"/>
       <use xlink:href="#TeXGyrePagellaX-Regular-17" transform="translate(124.533001 0) scale(0.996264)"/>
       <use xlink:href="#TeXGyrePagellaX-Regular-13" transform="translate(174.346202 0) scale(0.996264)"/>
       <use xlink:href="#TeXGyrePagellaX-Regular-16" transform="translate(224.159402 0) scale(0.996264)"/>
      </g>
     </g>
    </g>
    <g id="xtick_13">
     <g id="line2d_64">
      <path d="M 226.091176 174.57222 
L 226.091176 56.345985 
" clip-path="url(#p63fe906306)" style="fill: none; stroke-dasharray: 1.85,0.8; stroke-dashoffset: 0; stroke: #b0b0b0; stroke-opacity: 0.3; stroke-width: 0.5"/>
     </g>
     <g id="line2d_65">
      <g>
       <use xlink:href="#m6730c4d4c5" x="226.091176" y="174.57222" style="stroke: #000000; stroke-width: 0.5"/>
      </g>
     </g>
     <g id="line2d_66">
      <g>
       <use xlink:href="#m17c31672be" x="226.091176" y="56.345985" style="stroke: #000000; stroke-width: 0.5"/>
      </g>
     </g>
     <g id="text_17">
      <!-- .0125 -->
      <g transform="translate(213.818473 186.046756) scale(0.1095 -0.1095)">
       <use xlink:href="#TeXGyrePagellaX-Regular-f" transform="scale(0.996264)"/>
       <use xlink:href="#TeXGyrePagellaX-Regular-11" transform="translate(24.9066 0) scale(0.996264)"/>
       <use xlink:href="#TeXGyrePagellaX-Regular-12" transform="translate(74.719801 0) scale(0.996264)"/>
       <use xlink:href="#TeXGyrePagellaX-Regular-13" transform="translate(124.533001 0) scale(0.996264)"/>
       <use xlink:href="#TeXGyrePagellaX-Regular-16" transform="translate(174.346202 0) scale(0.996264)"/>
      </g>
     </g>
    </g>
    <g id="xtick_14">
     <g id="line2d_67">
      <path d="M 259.736824 174.57222 
L 259.736824 56.345985 
" clip-path="url(#p63fe906306)" style="fill: none; stroke-dasharray: 1.85,0.8; stroke-dashoffset: 0; stroke: #b0b0b0; stroke-opacity: 0.3; stroke-width: 0.5"/>
     </g>
     <g id="line2d_68">
      <g>
       <use xlink:href="#m6730c4d4c5" x="259.736824" y="174.57222" style="stroke: #000000; stroke-width: 0.5"/>
      </g>
     </g>
     <g id="line2d_69">
      <g>
       <use xlink:href="#m17c31672be" x="259.736824" y="56.345985" style="stroke: #000000; stroke-width: 0.5"/>
      </g>
     </g>
     <g id="text_18">
      <!-- .025 -->
      <g transform="translate(250.19139 186.046756) scale(0.1095 -0.1095)">
       <use xlink:href="#TeXGyrePagellaX-Regular-f" transform="scale(0.996264)"/>
       <use xlink:href="#TeXGyrePagellaX-Regular-11" transform="translate(24.9066 0) scale(0.996264)"/>
       <use xlink:href="#TeXGyrePagellaX-Regular-13" transform="translate(74.719801 0) scale(0.996264)"/>
       <use xlink:href="#TeXGyrePagellaX-Regular-16" transform="translate(124.533001 0) scale(0.996264)"/>
      </g>
     </g>
    </g>
    <g id="xtick_15">
     <g id="line2d_70">
      <path d="M 293.382473 174.57222 
L 293.382473 56.345985 
" clip-path="url(#p63fe906306)" style="fill: none; stroke-dasharray: 1.85,0.8; stroke-dashoffset: 0; stroke: #b0b0b0; stroke-opacity: 0.3; stroke-width: 0.5"/>
     </g>
     <g id="line2d_71">
      <g>
       <use xlink:href="#m6730c4d4c5" x="293.382473" y="174.57222" style="stroke: #000000; stroke-width: 0.5"/>
      </g>
     </g>
     <g id="line2d_72">
      <g>
       <use xlink:href="#m17c31672be" x="293.382473" y="56.345985" style="stroke: #000000; stroke-width: 0.5"/>
      </g>
     </g>
     <g id="text_19">
      <!-- .05 -->
      <g transform="translate(286.564307 186.046756) scale(0.1095 -0.1095)">
       <use xlink:href="#TeXGyrePagellaX-Regular-f" transform="scale(0.996264)"/>
       <use xlink:href="#TeXGyrePagellaX-Regular-11" transform="translate(24.9066 0) scale(0.996264)"/>
       <use xlink:href="#TeXGyrePagellaX-Regular-16" transform="translate(74.719801 0) scale(0.996264)"/>
      </g>
     </g>
    </g>
    <g id="xtick_16">
     <g id="line2d_73">
      <path d="M 190.46401 174.57222 
L 190.46401 56.345985 
" clip-path="url(#p63fe906306)" style="fill: none; stroke-dasharray: 1.85,0.8; stroke-dashoffset: 0; stroke: #b0b0b0; stroke-opacity: 0.3; stroke-width: 0.5"/>
     </g>
     <g id="line2d_74">
      <g>
       <use xlink:href="#m99eaa1f82b" x="190.46401" y="174.57222" style="stroke: #000000; stroke-width: 0.5"/>
      </g>
     </g>
     <g id="line2d_75">
      <g>
       <use xlink:href="#m9d4566f52f" x="190.46401" y="56.345985" style="stroke: #000000; stroke-width: 0.5"/>
      </g>
     </g>
    </g>
    <g id="xtick_17">
     <g id="line2d_76">
      <path d="M 197.946548 174.57222 
L 197.946548 56.345985 
" clip-path="url(#p63fe906306)" style="fill: none; stroke-dasharray: 1.85,0.8; stroke-dashoffset: 0; stroke: #b0b0b0; stroke-opacity: 0.3; stroke-width: 0.5"/>
     </g>
     <g id="line2d_77">
      <g>
       <use xlink:href="#m99eaa1f82b" x="197.946548" y="174.57222" style="stroke: #000000; stroke-width: 0.5"/>
      </g>
     </g>
     <g id="line2d_78">
      <g>
       <use xlink:href="#m9d4566f52f" x="197.946548" y="56.345985" style="stroke: #000000; stroke-width: 0.5"/>
      </g>
     </g>
    </g>
    <g id="xtick_18">
     <g id="line2d_79">
      <path d="M 204.428216 174.57222 
L 204.428216 56.345985 
" clip-path="url(#p63fe906306)" style="fill: none; stroke-dasharray: 1.85,0.8; stroke-dashoffset: 0; stroke: #b0b0b0; stroke-opacity: 0.3; stroke-width: 0.5"/>
     </g>
     <g id="line2d_80">
      <g>
       <use xlink:href="#m99eaa1f82b" x="204.428216" y="174.57222" style="stroke: #000000; stroke-width: 0.5"/>
      </g>
     </g>
     <g id="line2d_81">
      <g>
       <use xlink:href="#m9d4566f52f" x="204.428216" y="56.345985" style="stroke: #000000; stroke-width: 0.5"/>
      </g>
     </g>
    </g>
    <g id="xtick_19">
     <g id="line2d_82">
      <path d="M 210.145453 174.57222 
L 210.145453 56.345985 
" clip-path="url(#p63fe906306)" style="fill: none; stroke-dasharray: 1.85,0.8; stroke-dashoffset: 0; stroke: #b0b0b0; stroke-opacity: 0.3; stroke-width: 0.5"/>
     </g>
     <g id="line2d_83">
      <g>
       <use xlink:href="#m99eaa1f82b" x="210.145453" y="174.57222" style="stroke: #000000; stroke-width: 0.5"/>
      </g>
     </g>
     <g id="line2d_84">
      <g>
       <use xlink:href="#m9d4566f52f" x="210.145453" y="56.345985" style="stroke: #000000; stroke-width: 0.5"/>
      </g>
     </g>
    </g>
    <g id="xtick_20">
     <g id="line2d_85">
      <path d="M 248.905345 174.57222 
L 248.905345 56.345985 
" clip-path="url(#p63fe906306)" style="fill: none; stroke-dasharray: 1.85,0.8; stroke-dashoffset: 0; stroke: #b0b0b0; stroke-opacity: 0.3; stroke-width: 0.5"/>
     </g>
     <g id="line2d_86">
      <g>
       <use xlink:href="#m99eaa1f82b" x="248.905345" y="174.57222" style="stroke: #000000; stroke-width: 0.5"/>
      </g>
     </g>
     <g id="line2d_87">
      <g>
       <use xlink:href="#m9d4566f52f" x="248.905345" y="56.345985" style="stroke: #000000; stroke-width: 0.5"/>
      </g>
     </g>
    </g>
    <g id="xtick_21">
     <g id="line2d_88">
      <path d="M 268.586788 174.57222 
L 268.586788 56.345985 
" clip-path="url(#p63fe906306)" style="fill: none; stroke-dasharray: 1.85,0.8; stroke-dashoffset: 0; stroke: #b0b0b0; stroke-opacity: 0.3; stroke-width: 0.5"/>
     </g>
     <g id="line2d_89">
      <g>
       <use xlink:href="#m99eaa1f82b" x="268.586788" y="174.57222" style="stroke: #000000; stroke-width: 0.5"/>
      </g>
     </g>
     <g id="line2d_90">
      <g>
       <use xlink:href="#m9d4566f52f" x="268.586788" y="56.345985" style="stroke: #000000; stroke-width: 0.5"/>
      </g>
     </g>
    </g>
    <g id="xtick_22">
     <g id="line2d_91">
      <path d="M 282.550994 174.57222 
L 282.550994 56.345985 
" clip-path="url(#p63fe906306)" style="fill: none; stroke-dasharray: 1.85,0.8; stroke-dashoffset: 0; stroke: #b0b0b0; stroke-opacity: 0.3; stroke-width: 0.5"/>
     </g>
     <g id="line2d_92">
      <g>
       <use xlink:href="#m99eaa1f82b" x="282.550994" y="174.57222" style="stroke: #000000; stroke-width: 0.5"/>
      </g>
     </g>
     <g id="line2d_93">
      <g>
       <use xlink:href="#m9d4566f52f" x="282.550994" y="56.345985" style="stroke: #000000; stroke-width: 0.5"/>
      </g>
     </g>
    </g>
    <g id="text_20">
     <!-- time step $\Delta t$ -->
     <g transform="translate(213.940699 201.097646) scale(0.1095 -0.1095)">
      <use xlink:href="#TeXGyrePagellaX-Regular-55" transform="scale(0.996264)"/>
      <use xlink:href="#TeXGyrePagellaX-Regular-4a" transform="translate(32.478228 0) scale(0.996264)"/>
      <use xlink:href="#TeXGyrePagellaX-Regular-4e" transform="translate(61.469547 0) scale(0.996264)"/>
      <use xlink:href="#TeXGyrePagellaX-Regular-46" transform="translate(149.439693 0) scale(0.996264)"/>
      <use xlink:href="#TeXGyrePagellaX-Regular-54" transform="translate(222.067348 0) scale(0.996264)"/>
      <use xlink:href="#TeXGyrePagellaX-Regular-55" transform="translate(262.814479 0) scale(0.996264)"/>
      <use xlink:href="#TeXGyrePagellaX-Regular-46" transform="translate(295.292707 0) scale(0.996264)"/>
      <use xlink:href="#TeXGyrePagellaX-Regular-51" transform="translate(343.013762 0) scale(0.996264)"/>
      <use xlink:href="#pxmiaX-2" transform="translate(427.795805 0) scale(0.996264)"/>
      <use xlink:href="#NewPXMI-47" transform="translate(497.434684 0) scale(0.996264)"/>
     </g>
    </g>
   </g>
   <g id="matplotlib.axis_4">
    <g id="ytick_9">
     <g id="line2d_94">
      <path d="M 186.240442 162.837817 
L 299.742639 162.837817 
" clip-path="url(#p63fe906306)" style="fill: none; stroke-dasharray: 1.85,0.8; stroke-dashoffset: 0; stroke: #b0b0b0; stroke-opacity: 0.3; stroke-width: 0.5"/>
     </g>
     <g id="line2d_95">
      <g>
       <use xlink:href="#mbaee27b83c" x="186.240442" y="162.837817" style="stroke: #000000; stroke-width: 0.5"/>
      </g>
     </g>
     <g id="line2d_96">
      <g>
       <use xlink:href="#mbf72eb3b34" x="299.742639" y="162.837817" style="stroke: #000000; stroke-width: 0.5"/>
      </g>
     </g>
    </g>
    <g id="ytick_10">
     <g id="line2d_97">
      <path d="M 186.240442 148.59546 
L 299.742639 148.59546 
" clip-path="url(#p63fe906306)" style="fill: none; stroke-dasharray: 1.85,0.8; stroke-dashoffset: 0; stroke: #b0b0b0; stroke-opacity: 0.3; stroke-width: 0.5"/>
     </g>
     <g id="line2d_98">
      <g>
       <use xlink:href="#mbaee27b83c" x="186.240442" y="148.59546" style="stroke: #000000; stroke-width: 0.5"/>
      </g>
     </g>
     <g id="line2d_99">
      <g>
       <use xlink:href="#mbf72eb3b34" x="299.742639" y="148.59546" style="stroke: #000000; stroke-width: 0.5"/>
      </g>
     </g>
    </g>
    <g id="ytick_11">
     <g id="line2d_100">
      <path d="M 186.240442 134.353103 
L 299.742639 134.353103 
" clip-path="url(#p63fe906306)" style="fill: none; stroke-dasharray: 1.85,0.8; stroke-dashoffset: 0; stroke: #b0b0b0; stroke-opacity: 0.3; stroke-width: 0.5"/>
     </g>
     <g id="line2d_101">
      <g>
       <use xlink:href="#mbaee27b83c" x="186.240442" y="134.353103" style="stroke: #000000; stroke-width: 0.5"/>
      </g>
     </g>
     <g id="line2d_102">
      <g>
       <use xlink:href="#mbf72eb3b34" x="299.742639" y="134.353103" style="stroke: #000000; stroke-width: 0.5"/>
      </g>
     </g>
    </g>
    <g id="ytick_12">
     <g id="line2d_103">
      <path d="M 186.240442 120.110745 
L 299.742639 120.110745 
" clip-path="url(#p63fe906306)" style="fill: none; stroke-dasharray: 1.85,0.8; stroke-dashoffset: 0; stroke: #b0b0b0; stroke-opacity: 0.3; stroke-width: 0.5"/>
     </g>
     <g id="line2d_104">
      <g>
       <use xlink:href="#mbaee27b83c" x="186.240442" y="120.110745" style="stroke: #000000; stroke-width: 0.5"/>
      </g>
     </g>
     <g id="line2d_105">
      <g>
       <use xlink:href="#mbf72eb3b34" x="299.742639" y="120.110745" style="stroke: #000000; stroke-width: 0.5"/>
      </g>
     </g>
    </g>
    <g id="ytick_13">
     <g id="line2d_106">
      <path d="M 186.240442 105.868388 
L 299.742639 105.868388 
" clip-path="url(#p63fe906306)" style="fill: none; stroke-dasharray: 1.85,0.8; stroke-dashoffset: 0; stroke: #b0b0b0; stroke-opacity: 0.3; stroke-width: 0.5"/>
     </g>
     <g id="line2d_107">
      <g>
       <use xlink:href="#mbaee27b83c" x="186.240442" y="105.868388" style="stroke: #000000; stroke-width: 0.5"/>
      </g>
     </g>
     <g id="line2d_108">
      <g>
       <use xlink:href="#mbf72eb3b34" x="299.742639" y="105.868388" style="stroke: #000000; stroke-width: 0.5"/>
      </g>
     </g>
    </g>
    <g id="ytick_14">
     <g id="line2d_109">
      <path d="M 186.240442 91.626031 
L 299.742639 91.626031 
" clip-path="url(#p63fe906306)" style="fill: none; stroke-dasharray: 1.85,0.8; stroke-dashoffset: 0; stroke: #b0b0b0; stroke-opacity: 0.3; stroke-width: 0.5"/>
     </g>
     <g id="line2d_110">
      <g>
       <use xlink:href="#mbaee27b83c" x="186.240442" y="91.626031" style="stroke: #000000; stroke-width: 0.5"/>
      </g>
     </g>
     <g id="line2d_111">
      <g>
       <use xlink:href="#mbf72eb3b34" x="299.742639" y="91.626031" style="stroke: #000000; stroke-width: 0.5"/>
      </g>
     </g>
    </g>
    <g id="ytick_15">
     <g id="line2d_112">
      <path d="M 186.240442 77.383674 
L 299.742639 77.383674 
" clip-path="url(#p63fe906306)" style="fill: none; stroke-dasharray: 1.85,0.8; stroke-dashoffset: 0; stroke: #b0b0b0; stroke-opacity: 0.3; stroke-width: 0.5"/>
     </g>
     <g id="line2d_113">
      <g>
       <use xlink:href="#mbaee27b83c" x="186.240442" y="77.383674" style="stroke: #000000; stroke-width: 0.5"/>
      </g>
     </g>
     <g id="line2d_114">
      <g>
       <use xlink:href="#mbf72eb3b34" x="299.742639" y="77.383674" style="stroke: #000000; stroke-width: 0.5"/>
      </g>
     </g>
    </g>
    <g id="ytick_16">
     <g id="line2d_115">
      <path d="M 186.240442 63.141317 
L 299.742639 63.141317 
" clip-path="url(#p63fe906306)" style="fill: none; stroke-dasharray: 1.85,0.8; stroke-dashoffset: 0; stroke: #b0b0b0; stroke-opacity: 0.3; stroke-width: 0.5"/>
     </g>
     <g id="line2d_116">
      <g>
       <use xlink:href="#mbaee27b83c" x="186.240442" y="63.141317" style="stroke: #000000; stroke-width: 0.5"/>
      </g>
     </g>
     <g id="line2d_117">
      <g>
       <use xlink:href="#mbf72eb3b34" x="299.742639" y="63.141317" style="stroke: #000000; stroke-width: 0.5"/>
      </g>
     </g>
    </g>
   </g>
   <g id="line2d_118">
    <path d="M 192.445527 159.162666 
L 226.091176 146.302667 
L 259.736824 133.444883 
L 293.382473 120.591587 
" clip-path="url(#p63fe906306)" style="fill: none; stroke: #5c3d9b; stroke-width: 1.1; stroke-linecap: square"/>
    <g clip-path="url(#p63fe906306)">
     <use xlink:href="#me7a1789d9f" x="192.445527" y="159.162666" style="fill: #5c3d9b; stroke: #5c3d9b"/>
     <use xlink:href="#me7a1789d9f" x="226.091176" y="146.302667" style="fill: #5c3d9b; stroke: #5c3d9b"/>
     <use xlink:href="#me7a1789d9f" x="259.736824" y="133.444883" style="fill: #5c3d9b; stroke: #5c3d9b"/>
     <use xlink:href="#me7a1789d9f" x="293.382473" y="120.591587" style="fill: #5c3d9b; stroke: #5c3d9b"/>
    </g>
   </g>
   <g id="line2d_119">
    <path d="M 192.445527 72.589032 
L 226.091176 68.301244 
L 259.736824 64.013027 
L 293.382473 59.723906 
" clip-path="url(#p63fe906306)" style="fill: none; stroke-dasharray: 4.07,1.76; stroke-dashoffset: 0; stroke: #c76d24; stroke-width: 1.1"/>
    <g clip-path="url(#p63fe906306)">
     <use xlink:href="#m702eed34d6" x="192.445527" y="72.589032" style="fill: #c76d24; stroke: #c76d24; stroke-linejoin: miter"/>
     <use xlink:href="#m702eed34d6" x="226.091176" y="68.301244" style="fill: #c76d24; stroke: #c76d24; stroke-linejoin: miter"/>
     <use xlink:href="#m702eed34d6" x="259.736824" y="64.013027" style="fill: #c76d24; stroke: #c76d24; stroke-linejoin: miter"/>
     <use xlink:href="#m702eed34d6" x="293.382473" y="59.723906" style="fill: #c76d24; stroke: #c76d24; stroke-linejoin: miter"/>
    </g>
   </g>
   <g id="line2d_120">
    <path d="M 192.445527 122.152301 
L 226.091176 113.577259 
L 259.736824 105.001896 
L 293.382473 96.425799 
" clip-path="url(#p63fe906306)" style="fill: none; stroke-dasharray: 7.04,1.76,1.1,1.76; stroke-dashoffset: 0; stroke: #0e8a85; stroke-width: 1.1"/>
    <g clip-path="url(#p63fe906306)">
     <use xlink:href="#mffc066ecdd" x="192.445527" y="122.152301" style="fill: #0e8a85; stroke: #0e8a85; stroke-linejoin: miter"/>
     <use xlink:href="#mffc066ecdd" x="226.091176" y="113.577259" style="fill: #0e8a85; stroke: #0e8a85; stroke-linejoin: miter"/>
     <use xlink:href="#mffc066ecdd" x="259.736824" y="105.001896" style="fill: #0e8a85; stroke: #0e8a85; stroke-linejoin: miter"/>
     <use xlink:href="#mffc066ecdd" x="293.382473" y="96.425799" style="fill: #0e8a85; stroke: #0e8a85; stroke-linejoin: miter"/>
    </g>
   </g>
   <g id="patch_8">
    <path d="M 186.240442 174.57222 
L 186.240442 56.345985 
" style="fill: none; stroke: #000000; stroke-width: 0.5; stroke-linejoin: miter; stroke-linecap: square"/>
   </g>
   <g id="patch_9">
    <path d="M 299.742639 174.57222 
L 299.742639 56.345985 
" style="fill: none; stroke: #000000; stroke-width: 0.5; stroke-linejoin: miter; stroke-linecap: square"/>
   </g>
   <g id="patch_10">
    <path d="M 186.240442 174.57222 
L 299.742639 174.57222 
" style="fill: none; stroke: #000000; stroke-width: 0.5; stroke-linejoin: miter; stroke-linecap: square"/>
   </g>
   <g id="patch_11">
    <path d="M 186.240442 56.345985 
L 299.742639 56.345985 
" style="fill: none; stroke: #000000; stroke-width: 0.5; stroke-linejoin: miter; stroke-linecap: square"/>
   </g>
   <g id="text_21">
    <!-- cluster / void, $\sigma/h=0.6$ -->
    <g transform="translate(184.586863 50.345985) scale(0.1095 -0.1095)">
     <defs>
      <path id="TeXGyrePagellaX-Regular-10" d="M 3321 4672 
L 2937 4672 
L 556 -768 
L 940 -768 
L 3321 4672 
z
" transform="scale(0.015625)"/>
      <path id="TeXGyrePagellaX-Regular-57" d="M 3449 2764 
L 3449 2944 
C 3251 2931 3046 2924 2848 2924 
C 2649 2924 2444 2931 2246 2944 
L 2246 2764 
L 2508 2752 
C 2617 2745 2668 2693 2668 2577 
C 2668 2474 2624 2325 2540 2112 
L 2272 1428 
L 1875 523 
L 1113 2383 
C 1081 2461 1062 2538 1062 2603 
C 1062 2687 1100 2745 1216 2752 
L 1529 2764 
L 1529 2944 
C 1280 2931 1030 2924 780 2924 
C 531 2924 288 2931 38 2944 
L 38 2764 
L 256 2752 
C 371 2745 390 2687 454 2538 
L 1555 -64 
L 1875 -64 
C 1913 149 2009 349 2137 640 
L 2892 2319 
C 3040 2648 3123 2745 3251 2752 
L 3449 2764 
z
" transform="scale(0.015625)"/>
     </defs>
     <use xlink:href="#TeXGyrePagellaX-Regular-44" transform="scale(0.996264)"/>
     <use xlink:href="#TeXGyrePagellaX-Regular-4d" transform="translate(44.234146 0) scale(0.996264)"/>
     <use xlink:href="#TeXGyrePagellaX-Regular-56" transform="translate(73.225466 0) scale(0.996264)"/>
     <use xlink:href="#TeXGyrePagellaX-Regular-54" transform="translate(133.300143 0) scale(0.996264)"/>
     <use xlink:href="#TeXGyrePagellaX-Regular-55" transform="translate(174.047274 0) scale(0.996264)"/>
     <use xlink:href="#TeXGyrePagellaX-Regular-46" transform="translate(206.525502 0) scale(0.996264)"/>
     <use xlink:href="#TeXGyrePagellaX-Regular-53" transform="translate(254.246557 0) scale(0.996264)"/>
     <use xlink:href="#TeXGyrePagellaX-Regular-10" transform="translate(318.505631 0) scale(0.996264)"/>
     <use xlink:href="#TeXGyrePagellaX-Regular-57" transform="translate(403.785821 0) scale(0.996264)"/>
     <use xlink:href="#TeXGyrePagellaX-Regular-50" transform="translate(456.089636 0) scale(0.996264)"/>
     <use xlink:href="#TeXGyrePagellaX-Regular-4a" transform="translate(510.485597 0) scale(0.996264)"/>
     <use xlink:href="#TeXGyrePagellaX-Regular-45" transform="translate(539.476916 0) scale(0.996264)"/>
     <use xlink:href="#TeXGyrePagellaX-Regular-d" transform="translate(600.348653 0) scale(0.996264)"/>
     <use xlink:href="#NewPXMI_gnu-1b" transform="translate(653.150615 0) scale(0.996264)"/>
     <use xlink:href="#pxsys-a3" transform="translate(711.232825 0) scale(0.996264)"/>
     <use xlink:href="#NewPXMI-3a" transform="translate(765.429627 0) scale(0.996264)"/>
     <use xlink:href="#pxmiaX-8d" transform="translate(847.89811 0) scale(0.996264)"/>
     <use xlink:href="#TeXGyrePagellaX-Regular-11" transform="translate(942.222069 0) scale(0.996264)"/>
     <use xlink:href="#TeXGyrePagellaX-Regular-f" transform="translate(992.035269 0) scale(0.996264)"/>
     <use xlink:href="#TeXGyrePagellaX-Regular-17" transform="translate(1016.94187 0) scale(0.996264)"/>
    </g>
   </g>
  </g>
  <g id="legend_1">
   <g id="patch_12">
    <path d="M 16.731024 27.44589 
L 337.599684 27.44589 
Q 339.789684 27.44589 339.789684 25.25589 
L 339.789684 9.825 
Q 339.789684 7.635 337.599684 7.635 
L 16.731024 7.635 
Q 14.541024 7.635 14.541024 9.825 
L 14.541024 25.25589 
Q 14.541024 27.44589 16.731024 27.44589 
z
" style="fill: #ffffff; opacity: 0.8; stroke: #cccccc; stroke-linejoin: miter"/>
   </g>
   <g id="line2d_121">
    <path d="M 18.921024 16.157036 
L 27.681024 16.157036 
L 36.441024 16.157036 
" style="fill: none; stroke: #5c3d9b; stroke-width: 1.1; stroke-linecap: square"/>
    <g>
     <use xlink:href="#me7a1789d9f" x="27.681024" y="16.157036" style="fill: #5c3d9b; stroke: #5c3d9b"/>
    </g>
   </g>
   <g id="text_22">
    <!-- Coupled SSPRK3 -->
    <g transform="translate(40.821024 19.989536) scale(0.1095 -0.1095)">
     <defs>
      <path id="TeXGyrePagellaX-Regular-24" d="M 4288 538 
L 4230 602 
C 3833 345 3392 217 2905 217 
C 1657 217 825 1050 825 2313 
C 825 3493 1555 4275 2656 4275 
C 3283 4275 3929 4018 3929 3768 
L 3929 3307 
L 4128 3307 
C 4134 3627 4160 3858 4249 4281 
C 3705 4460 3238 4544 2771 4544 
C 2214 4544 1683 4409 1254 4159 
C 524 3730 140 3057 140 2191 
C 140 807 1152 -128 2656 -128 
C 3187 -128 3667 -13 4109 217 
L 4288 538 
z
" transform="scale(0.015625)"/>
      <path id="TeXGyrePagellaX-Regular-31" d="M 3712 3443 
C 3712 4057 3212 4435 2400 4435 
C 2035 4435 1676 4416 1312 4416 
C 921 4416 537 4422 147 4435 
L 147 4243 
L 435 4223 
C 723 4204 774 4121 774 3647 
L 774 768 
C 774 262 742 211 448 192 
L 140 172 
L 140 -20 
C 454 -7 761 0 1075 0 
C 1388 0 1702 -7 2016 -20 
L 2016 172 
L 1708 192 
C 1414 211 1382 262 1382 768 
L 1382 4115 
C 1606 4166 1792 4191 2009 4191 
C 2700 4191 3072 3875 3072 3273 
C 3072 2703 2681 2304 2124 2304 
C 1990 2304 1894 2316 1728 2367 
L 1792 2137 
C 1945 2105 2035 2099 2163 2099 
C 3040 2099 3712 2690 3712 3450 
L 3712 3443 
z
" transform="scale(0.015625)"/>
      <path id="TeXGyrePagellaX-Regular-2c" d="M 4601 -20 
L 4601 172 
L 4467 185 
C 4371 192 4269 262 4070 448 
L 1958 2448 
L 3661 3986 
C 3833 4140 3993 4223 4160 4230 
L 4429 4243 
L 4429 4435 
C 4256 4422 4089 4416 3917 4416 
C 3725 4416 3539 4422 3347 4435 
L 3347 4262 
C 3347 4223 3264 4115 3161 4012 
L 1382 2275 
L 1382 3647 
C 1382 4153 1414 4204 1708 4223 
L 2016 4243 
L 2016 4435 
C 1702 4422 1388 4416 1075 4416 
C 761 4416 454 4422 140 4435 
L 140 4243 
L 448 4223 
C 742 4204 774 4153 774 3647 
L 774 768 
C 774 262 742 211 448 192 
L 140 172 
L 140 -20 
C 454 -7 761 0 1075 0 
C 1388 0 1702 -7 2016 -20 
L 2016 172 
L 1708 192 
C 1414 211 1382 262 1382 768 
L 1382 2083 
L 1446 2127 
L 3673 -20 
C 3846 -7 4013 0 4185 0 
C 4326 0 4461 -7 4601 -20 
z
" transform="scale(0.015625)"/>
      <path id="TeXGyrePagellaX-Regular-14" d="M 2956 1446 
C 2956 1753 2828 2022 2598 2182 
C 2438 2297 2291 2348 1971 2406 
C 2483 2801 2675 3094 2675 3470 
C 2675 4038 2201 4416 1491 4416 
C 1056 4416 768 4294 460 3987 
L 275 3196 
L 473 3196 
L 588 3553 
C 659 3770 1062 3987 1395 3987 
C 1811 3987 2150 3649 2150 3247 
C 2150 2769 1772 2368 1318 2368 
C 1267 2368 1017 2387 1017 2387 
L 940 2047 
L 985 2009 
C 1228 2118 1350 2150 1523 2150 
C 2054 2137 2361 1798 2361 1216 
C 2361 563 1971 134 1376 134 
C 1081 134 819 230 627 409 
C 473 550 390 697 268 1043 
L 96 979 
C 230 588 281 358 320 38 
C 659 -77 940 -128 1177 -128 
C 1952 -128 2956 544 2956 1433 
L 2956 1446 
z
" transform="scale(0.015625)"/>
     </defs>
     <use xlink:href="#TeXGyrePagellaX-Regular-24" transform="scale(0.996264)"/>
     <use xlink:href="#TeXGyrePagellaX-Regular-50" transform="translate(70.635082 0) scale(0.996264)"/>
     <use xlink:href="#TeXGyrePagellaX-Regular-56" transform="translate(125.031042 0) scale(0.996264)"/>
     <use xlink:href="#TeXGyrePagellaX-Regular-51" transform="translate(185.105719 0) scale(0.996264)"/>
     <use xlink:href="#TeXGyrePagellaX-Regular-4d" transform="translate(244.981162 0) scale(0.996264)"/>
     <use xlink:href="#TeXGyrePagellaX-Regular-46" transform="translate(273.972481 0) scale(0.996264)"/>
     <use xlink:href="#TeXGyrePagellaX-Regular-45" transform="translate(321.693536 0) scale(0.996264)"/>
     <use xlink:href="#TeXGyrePagellaX-Regular-34" transform="translate(407.471874 0) scale(0.996264)"/>
     <use xlink:href="#TeXGyrePagellaX-Regular-34" transform="translate(459.775689 0) scale(0.996264)"/>
     <use xlink:href="#TeXGyrePagellaX-Regular-31" transform="translate(512.079503 0) scale(0.996264)"/>
     <use xlink:href="#TeXGyrePagellaX-Regular-33" transform="translate(572.253859 0) scale(0.996264)"/>
     <use xlink:href="#TeXGyrePagellaX-Regular-2c" transform="translate(638.804313 0) scale(0.996264)"/>
     <use xlink:href="#TeXGyrePagellaX-Regular-14" transform="translate(711.133056 0) scale(0.996264)"/>
    </g>
   </g>
   <g id="line2d_122">
    <path d="M 132.904502 16.157036 
L 141.664502 16.157036 
L 150.424502 16.157036 
" style="fill: none; stroke-dasharray: 4.07,1.76; stroke-dashoffset: 0; stroke: #c76d24; stroke-width: 1.1"/>
    <g>
     <use xlink:href="#m702eed34d6" x="141.664502" y="16.157036" style="fill: #c76d24; stroke: #c76d24; stroke-linejoin: miter"/>
    </g>
   </g>
   <g id="text_23">
    <!-- Sequential RK3 -->
    <g transform="translate(154.804502 19.989536) scale(0.1095 -0.1095)">
     <defs>
      <path id="TeXGyrePagellaX-Regular-52" d="M 3584 -1812 
L 3584 -1620 
L 3289 -1600 
C 3072 -1587 3052 -1542 3052 -1132 
L 3052 2043 
C 3052 2439 3091 2681 3200 2924 
L 3078 2995 
L 2764 2796 
C 2438 2943 2163 3008 1888 3008 
C 1702 3008 1478 2956 1382 2899 
L 844 2553 
C 435 2292 224 1870 224 1315 
C 224 479 729 -64 1523 -64 
C 1657 -64 1766 -39 1849 12 
L 2515 434 
L 2515 -1132 
C 2515 -1542 2489 -1587 2278 -1600 
L 1907 -1620 
L 1907 -1812 
C 2201 -1799 2502 -1792 2796 -1792 
C 3059 -1792 3321 -1799 3584 -1812 
z
M 2515 779 
C 2515 690 2361 524 2188 428 
C 2035 345 1888 300 1734 300 
C 1171 300 780 824 780 1596 
C 780 2298 1139 2707 1753 2707 
C 2067 2707 2291 2630 2515 2445 
L 2515 779 
z
" transform="scale(0.015625)"/>
      <path id="TeXGyrePagellaX-Regular-4f" d="M 3661 -20 
L 3661 172 
L 3398 192 
C 3180 204 3161 243 3161 654 
L 3161 1892 
C 3161 2643 2809 3008 2092 3008 
C 1856 3008 1721 2963 1587 2847 
L 1100 2425 
L 1100 2982 
L 1043 3008 
C 716 2867 384 2777 44 2739 
L 44 2560 
L 281 2560 
C 537 2560 563 2515 563 2092 
L 563 652 
C 563 249 544 204 326 192 
L 38 172 
L 38 -20 
C 300 -7 569 0 832 0 
C 1094 0 1363 -7 1625 -20 
L 1625 172 
L 1337 192 
C 1120 204 1100 249 1100 652 
L 1100 2009 
C 1100 2303 1523 2617 1913 2617 
C 2342 2617 2624 2296 2624 1802 
L 2624 -20 
C 2790 -7 2963 0 3129 0 
C 3309 0 3481 -7 3661 -20 
z
" transform="scale(0.015625)"/>
     </defs>
     <use xlink:href="#TeXGyrePagellaX-Regular-34" transform="scale(0.996264)"/>
     <use xlink:href="#TeXGyrePagellaX-Regular-46" transform="translate(52.303815 0) scale(0.996264)"/>
     <use xlink:href="#TeXGyrePagellaX-Regular-52" transform="translate(100.02487 0) scale(0.996264)"/>
     <use xlink:href="#TeXGyrePagellaX-Regular-56" transform="translate(155.815685 0) scale(0.996264)"/>
     <use xlink:href="#TeXGyrePagellaX-Regular-46" transform="translate(215.890362 0) scale(0.996264)"/>
     <use xlink:href="#TeXGyrePagellaX-Regular-4f" transform="translate(263.611418 0) scale(0.996264)"/>
     <use xlink:href="#TeXGyrePagellaX-Regular-55" transform="translate(321.593949 0) scale(0.996264)"/>
     <use xlink:href="#TeXGyrePagellaX-Regular-4a" transform="translate(354.072177 0) scale(0.996264)"/>
     <use xlink:href="#TeXGyrePagellaX-Regular-42" transform="translate(383.063497 0) scale(0.996264)"/>
     <use xlink:href="#TeXGyrePagellaX-Regular-4d" transform="translate(432.876697 0) scale(0.996264)"/>
     <use xlink:href="#TeXGyrePagellaX-Regular-33" transform="translate(486.774617 0) scale(0.996264)"/>
     <use xlink:href="#TeXGyrePagellaX-Regular-2c" transform="translate(553.325071 0) scale(0.996264)"/>
     <use xlink:href="#TeXGyrePagellaX-Regular-14" transform="translate(625.653813 0) scale(0.996264)"/>
    </g>
   </g>
   <g id="line2d_123">
    <path d="M 237.528014 16.157036 
L 246.288014 16.157036 
L 255.048014 16.157036 
" style="fill: none; stroke-dasharray: 7.04,1.76,1.1,1.76; stroke-dashoffset: 0; stroke: #0e8a85; stroke-width: 1.1"/>
    <g>
     <use xlink:href="#mffc066ecdd" x="246.288014" y="16.157036" style="fill: #0e8a85; stroke: #0e8a85; stroke-linejoin: miter"/>
    </g>
   </g>
   <g id="text_24">
    <!-- Symmetric split -->
    <g transform="translate(259.428014 19.989536) scale(0.1095 -0.1095)">
     <defs>
      <path id="TeXGyrePagellaX-Regular-5a" d="M 3481 2764 
L 3481 2944 
C 3277 2931 3078 2924 2873 2924 
C 2668 2924 2470 2931 2265 2944 
L 2265 2764 
L 2432 2752 
C 2624 2739 2707 2694 2707 2592 
C 2707 2547 2688 2496 2662 2426 
L 1900 563 
C 1760 805 1696 952 1574 1265 
L 1164 2337 
C 1126 2445 1100 2528 1100 2592 
C 1100 2694 1164 2745 1318 2752 
L 1561 2764 
L 1561 2944 
C 1312 2931 1068 2924 819 2924 
C 569 2924 326 2931 76 2944 
L 76 2764 
L 192 2752 
C 352 2732 435 2662 524 2439 
L 1580 -139 
L 1433 -528 
C 1228 -1064 979 -1364 736 -1364 
C 633 -1364 518 -1313 409 -1217 
L 326 -1217 
L 172 -1696 
C 294 -1760 396 -1792 518 -1792 
C 947 -1792 1222 -1562 1465 -1006 
L 2764 1979 
C 3020 2560 3142 2739 3302 2752 
L 3481 2764 
z
" transform="scale(0.015625)"/>
     </defs>
     <use xlink:href="#TeXGyrePagellaX-Regular-34" transform="scale(0.996264)"/>
     <use xlink:href="#TeXGyrePagellaX-Regular-5a" transform="translate(52.303815 0) scale(0.996264)"/>
     <use xlink:href="#TeXGyrePagellaX-Regular-4e" transform="translate(107.69607 0) scale(0.996264)"/>
     <use xlink:href="#TeXGyrePagellaX-Regular-4e" transform="translate(195.666215 0) scale(0.996264)"/>
     <use xlink:href="#TeXGyrePagellaX-Regular-46" transform="translate(283.636361 0) scale(0.996264)"/>
     <use xlink:href="#TeXGyrePagellaX-Regular-55" transform="translate(331.357416 0) scale(0.996264)"/>
     <use xlink:href="#TeXGyrePagellaX-Regular-53" transform="translate(363.835644 0) scale(0.996264)"/>
     <use xlink:href="#TeXGyrePagellaX-Regular-4a" transform="translate(403.188118 0) scale(0.996264)"/>
     <use xlink:href="#TeXGyrePagellaX-Regular-44" transform="translate(432.179437 0) scale(0.996264)"/>
     <use xlink:href="#TeXGyrePagellaX-Regular-54" transform="translate(501.320184 0) scale(0.996264)"/>
     <use xlink:href="#TeXGyrePagellaX-Regular-51" transform="translate(543.561756 0) scale(0.996264)"/>
     <use xlink:href="#TeXGyrePagellaX-Regular-4d" transform="translate(603.437199 0) scale(0.996264)"/>
     <use xlink:href="#TeXGyrePagellaX-Regular-4a" transform="translate(632.428518 0) scale(0.996264)"/>
     <use xlink:href="#TeXGyrePagellaX-Regular-55" transform="translate(661.419837 0) scale(0.996264)"/>
    </g>
   </g>
  </g>
 </g>
 <defs>
  <clipPath id="p7bdba60180">
   <rect x="54.58807" y="56.345985" width="113.502197" height="118.226235"/>
  </clipPath>
  <clipPath id="p63fe906306">
   <rect x="186.240442" y="56.345985" width="113.502197" height="118.226235"/>
  </clipPath>
 </defs>
</svg>
