<?xml version="1.0" encoding="UTF-8" standalone="no"?>
<!-- Created with Inkscape (http://www.inkscape.org/) -->

<svg
   width="257.8877mm"
   height="54.085129mm"
   viewBox="0 0 257.8877 54.08513"
   version="1.1"
   id="svg1"
   inkscape:version="1.4 (1:1.4+202410161351+e7c3feb100)"
   sodipodi:docname="Logo_Design.svg"
   xml:space="preserve"
   inkscape:export-filename="Logotype.png"
   inkscape:export-xdpi="300"
   inkscape:export-ydpi="300"
   xmlns:inkscape="http://www.inkscape.org/namespaces/inkscape"
   xmlns:sodipodi="http://sodipodi.sourceforge.net/DTD/sodipodi-0.dtd"
   xmlns:xlink="http://www.w3.org/1999/xlink"
   xmlns="http://www.w3.org/2000/svg"
   xmlns:svg="http://www.w3.org/2000/svg"><sodipodi:namedview
     id="namedview1"
     pagecolor="#ffffff"
     bordercolor="#000000"
     borderopacity="0.25"
     inkscape:showpageshadow="2"
     inkscape:pageopacity="0.0"
     inkscape:pagecheckerboard="0"
     inkscape:deskcolor="#d1d1d1"
     inkscape:document-units="mm"
     inkscape:zoom="0.53608092"
     inkscape:cx="566.14587"
     inkscape:cy="-449.559"
     inkscape:window-width="1992"
     inkscape:window-height="1115"
     inkscape:window-x="1520"
     inkscape:window-y="0"
     inkscape:window-maximized="1"
     inkscape:current-layer="svg1"
     showguides="false"
     showgrid="false"><sodipodi:guide
       position="-9.6814369,69.497649"
       orientation="1,0"
       id="guide1"
       inkscape:locked="false" /><sodipodi:guide
       position="115.16859,69.497649"
       orientation="0,-1"
       id="guide17"
       inkscape:locked="false" /></sodipodi:namedview><defs
     id="defs1"><linearGradient
       id="linearGradient10"
       inkscape:collect="always"
       inkscape:label="Grandeour"><stop
         style="stop-color:#002146;stop-opacity:1;"
         offset="0"
         id="stop7" /><stop
         style="stop-color:#1cb5e0;stop-opacity:1;"
         offset="1"
         id="stop8" /></linearGradient><linearGradient
       id="linearGradient1"
       inkscape:collect="always"><stop
         style="stop-color:#000000;stop-opacity:1;"
         offset="0"
         id="stop1" /><stop
         style="stop-color:#000000;stop-opacity:0;"
         offset="1"
         id="stop2" /></linearGradient><linearGradient
       id="linearGradient569"
       inkscape:collect="always"
       inkscape:label="Grandeour"><stop
         style="stop-color:#f4d03f;stop-opacity:1;"
         offset="0"
         id="stop568" /><stop
         style="stop-color:#16a085;stop-opacity:1;"
         offset="1"
         id="stop569" /></linearGradient><linearGradient
       id="linearGradient566"
       inkscape:collect="always"
       inkscape:label="Grandeour"><stop
         style="stop-color:#005c97;stop-opacity:1;"
         offset="0"
         id="stop565" /><stop
         style="stop-color:#363795;stop-opacity:1;"
         offset="1"
         id="stop566" /></linearGradient><linearGradient
       id="linearGradient564"
       inkscape:collect="always"
       inkscape:label="Grandeour"><stop
         style="stop-color:#333399;stop-opacity:1;"
         offset="0"
         id="stop563" /><stop
         style="stop-color:#ff00cc;stop-opacity:1;"
         offset="1"
         id="stop564" /></linearGradient><linearGradient
       id="linearGradient562"
       inkscape:collect="always"
       inkscape:label="Grandeour"><stop
         style="stop-color:#f7971e;stop-opacity:1;"
         offset="0"
         id="stop561" /><stop
         style="stop-color:#ffd200;stop-opacity:1;"
         offset="1"
         id="stop562" /></linearGradient><linearGradient
       id="linearGradient555"
       inkscape:collect="always"
       inkscape:label="Grandeour"><stop
         style="stop-color:#000046;stop-opacity:1;"
         offset="0"
         id="stop554" /><stop
         style="stop-color:#1cb5e0;stop-opacity:1;"
         offset="1"
         id="stop555" /></linearGradient><linearGradient
       id="linearGradient552"
       inkscape:collect="always"
       inkscape:label="eXpresso"><stop
         style="stop-color:#ad5389;stop-opacity:1;"
         offset="0"
         id="stop552" /><stop
         style="stop-color:#3c1053;stop-opacity:1;"
         offset="1"
         id="stop553" /></linearGradient><linearGradient
       id="linearGradient524"
       inkscape:collect="always"
       inkscape:label="Original"><stop
         style="stop-color:#55b9f3;stop-opacity:1;"
         offset="0"
         id="stop524" /><stop
         style="stop-color:#74f8f2;stop-opacity:1;"
         offset="1"
         id="stop523" /></linearGradient><linearGradient
       id="swatch6"
       inkscape:swatch="solid"><stop
         style="stop-color:#000000;stop-opacity:1;"
         offset="0"
         id="stop6" /></linearGradient><linearGradient
       inkscape:collect="always"
       xlink:href="#linearGradient552"
       id="linearGradient553"
       x1="245.24518"
       y1="72.106972"
       x2="316.13"
       y2="72.106972"
       gradientUnits="userSpaceOnUse"
       gradientTransform="matrix(1,0,0,0.56451611,0,25.90174)" /><linearGradient
       inkscape:collect="always"
       xlink:href="#linearGradient555"
       id="linearGradient554"
       gradientUnits="userSpaceOnUse"
       gradientTransform="matrix(1,0,0,0.56451611,-1.1929141e-5,40.160185)"
       x1="245.24518"
       y1="72.106972"
       x2="316.13"
       y2="72.106972" /><linearGradient
       inkscape:collect="always"
       xlink:href="#linearGradient524"
       id="linearGradient558"
       gradientUnits="userSpaceOnUse"
       gradientTransform="matrix(1,0,0,0.56451611,-1.5703124e-6,54.418619)"
       x1="245.24518"
       y1="72.106972"
       x2="316.13"
       y2="72.106972" /><linearGradient
       inkscape:collect="always"
       xlink:href="#linearGradient562"
       id="linearGradient559"
       gradientUnits="userSpaceOnUse"
       gradientTransform="matrix(1,0,0,0.56451611,-5.5726562e-6,68.677067)"
       x1="245.24518"
       y1="72.106972"
       x2="316.13"
       y2="72.106972" /><linearGradient
       inkscape:collect="always"
       xlink:href="#linearGradient564"
       id="linearGradient560"
       gradientUnits="userSpaceOnUse"
       gradientTransform="matrix(1,0,0,0.56451611,-9.9501948e-7,82.935504)"
       x1="245.24518"
       y1="72.106972"
       x2="316.13"
       y2="72.106972" /><linearGradient
       inkscape:collect="always"
       xlink:href="#linearGradient566"
       id="linearGradient561"
       gradientUnits="userSpaceOnUse"
       gradientTransform="matrix(1,0,0,0.56451611,4.6332032e-6,97.193938)"
       x1="245.24518"
       y1="72.106972"
       x2="316.13"
       y2="72.106972" /><linearGradient
       inkscape:collect="always"
       xlink:href="#linearGradient569"
       id="linearGradient567"
       gradientUnits="userSpaceOnUse"
       gradientTransform="matrix(1,0,0,0.56451611,1.3579101e-6,111.45237)"
       x1="245.24518"
       y1="72.106972"
       x2="316.13"
       y2="72.106972" /><linearGradient
       inkscape:collect="always"
       xlink:href="#linearGradient566"
       id="linearGradient568"
       gradientUnits="userSpaceOnUse"
       gradientTransform="matrix(1,0,0,0.56451611,-1.7177344e-5,125.71081)"
       x1="245.24518"
       y1="72.106972"
       x2="316.13"
       y2="72.106972" /><linearGradient
       inkscape:collect="always"
       xlink:href="#linearGradient1"
       id="linearGradient2"
       x1="47.760109"
       y1="165.03252"
       x2="175.71095"
       y2="165.03252"
       gradientUnits="userSpaceOnUse" /><linearGradient
       inkscape:collect="always"
       xlink:href="#linearGradient566"
       id="linearGradient8"
       x1="156.98216"
       y1="191.34258"
       x2="169.87526"
       y2="178.99911"
       gradientUnits="userSpaceOnUse"
       gradientTransform="matrix(0.97104443,0,0,0.97104443,86.323093,-128.71297)" /><linearGradient
       inkscape:collect="always"
       xlink:href="#linearGradient524"
       id="linearGradient5"
       x1="-69.604431"
       y1="-57.961018"
       x2="-65.023323"
       y2="-27.184471"
       gradientUnits="userSpaceOnUse"
       gradientTransform="matrix(0.37711732,0,0,0.37711732,62.738789,60.381129)" /><linearGradient
       inkscape:collect="always"
       xlink:href="#linearGradient10"
       id="linearGradient9"
       x1="-59.802582"
       y1="-3.0696023"
       x2="-56.903198"
       y2="-233.63928"
       gradientUnits="userSpaceOnUse"
       gradientTransform="matrix(0.37711732,0,0,0.37711732,62.738789,60.381129)" /><linearGradient
       inkscape:collect="always"
       xlink:href="#linearGradient555"
       id="linearGradient3"
       gradientUnits="userSpaceOnUse"
       gradientTransform="matrix(1.333978,0,0,1.333978,250.51133,-359.96345)"
       x1="48.392635"
       y1="165.8517"
       x2="185.64961"
       y2="164.4297" /><linearGradient
       inkscape:collect="always"
       xlink:href="#linearGradient10"
       id="linearGradient12"
       x1="159.83017"
       y1="-67.657837"
       x2="159.83017"
       y2="128.45715"
       gradientUnits="userSpaceOnUse" /></defs><rect
     style="opacity:1;fill:#000000;fill-opacity:1;stroke:#6699ff;stroke-width:0.264583;stroke-linecap:round;stroke-linejoin:round"
     id="rect12"
     width="330.95047"
     height="154.02229"
     x="-44.63427"
     y="-177.34744" /><g
     id="g28"
     inkscape:label="References"
     transform="translate(58.613297,-181.37601)"><rect
       style="opacity:1;fill:url(#linearGradient553);fill-rule:evenodd;stroke:none;stroke-width:0.436531;stroke-linecap:round;stroke-linejoin:round;stroke-miterlimit:0;stroke-dasharray:none;stroke-dashoffset:0;stroke-opacity:1"
       id="rect550"
       width="70.884819"
       height="14.25844"
       x="245.24518"
       y="59.478065"
       ry="2.5524507e-06" /><rect
       style="fill:url(#linearGradient554);fill-rule:evenodd;stroke:none;stroke-width:0.436531;stroke-linecap:round;stroke-linejoin:round;stroke-miterlimit:0;stroke-dasharray:none;stroke-dashoffset:0;stroke-opacity:1"
       id="rect550-4"
       width="70.884819"
       height="14.25844"
       x="245.24518"
       y="73.736504"
       ry="2.5524507e-06" /><rect
       style="fill:url(#linearGradient559);fill-rule:evenodd;stroke:none;stroke-width:0.436531;stroke-linecap:round;stroke-linejoin:round;stroke-miterlimit:0;stroke-dasharray:none;stroke-dashoffset:0;stroke-opacity:1"
       id="rect550-4-7"
       width="70.884819"
       height="14.25844"
       x="245.24518"
       y="102.25338"
       ry="2.5524507e-06" /><rect
       style="fill:url(#linearGradient560);fill-rule:evenodd;stroke:none;stroke-width:0.436531;stroke-linecap:round;stroke-linejoin:round;stroke-miterlimit:0;stroke-dasharray:none;stroke-dashoffset:0;stroke-opacity:1"
       id="rect550-4-2"
       width="70.884819"
       height="14.25844"
       x="245.24519"
       y="116.51182"
       ry="2.5524507e-06" /><rect
       style="fill:url(#linearGradient558);fill-rule:evenodd;stroke:none;stroke-width:0.436531;stroke-linecap:round;stroke-linejoin:round;stroke-miterlimit:0;stroke-dasharray:none;stroke-dashoffset:0;stroke-opacity:1"
       id="rect550-4-4"
       width="70.884819"
       height="14.25844"
       x="245.24518"
       y="87.994942"
       ry="2.5524507e-06" /><rect
       style="fill:url(#linearGradient561);fill-rule:evenodd;stroke:none;stroke-width:0.436531;stroke-linecap:round;stroke-linejoin:round;stroke-miterlimit:0;stroke-dasharray:none;stroke-dashoffset:0;stroke-opacity:1"
       id="rect550-4-42"
       width="70.884819"
       height="14.25844"
       x="245.24519"
       y="130.77026"
       ry="2.5524507e-06" /><rect
       style="fill:url(#linearGradient567);fill-rule:evenodd;stroke:none;stroke-width:0.436531;stroke-linecap:round;stroke-linejoin:round;stroke-miterlimit:0;stroke-dasharray:none;stroke-dashoffset:0;stroke-opacity:1"
       id="rect550-4-42-8"
       width="70.884819"
       height="14.25844"
       x="245.24518"
       y="145.0287"
       ry="2.5524507e-06" /><rect
       style="fill:url(#linearGradient568);fill-rule:evenodd;stroke:none;stroke-width:0.436531;stroke-linecap:round;stroke-linejoin:round;stroke-miterlimit:0;stroke-dasharray:none;stroke-dashoffset:0;stroke-opacity:1"
       id="rect550-4-42-7"
       width="70.884819"
       height="14.25844"
       x="245.24518"
       y="159.28714"
       ry="2.5524507e-06" /></g><text
     xml:space="preserve"
     style="font-style:normal;font-variant:normal;font-weight:bold;font-stretch:normal;font-size:7.53633px;line-height:1.2;font-family:Comfortaa;-inkscape-font-specification:'Comfortaa, Bold';font-variant-ligatures:normal;font-variant-caps:normal;font-variant-numeric:normal;font-variant-east-asian:normal;text-align:center;text-decoration-color:#000000;letter-spacing:0px;word-spacing:0px;text-anchor:middle;fill:url(#linearGradient8);fill-rule:evenodd;stroke:none;stroke-width:3.43613;stroke-linecap:round;stroke-miterlimit:0;stroke-dasharray:3.43613, 3.43613;stroke-dashoffset:0;stroke-opacity:1;paint-order:stroke fill markers"
     x="246.91481"
     y="47.684925"
     id="text15-7-8-7-7-6-4-1"
     inkscape:label="Alpha"
     inkscape:export-filename="Logotype.png"
     inkscape:export-xdpi="300"
     inkscape:export-ydpi="300"><tspan
       sodipodi:role="line"
       id="tspan15-0-2-2-0-5-1-3"
       style="font-style:normal;font-variant:normal;font-weight:bold;font-stretch:normal;font-size:7.53633px;font-family:Comfortaa;-inkscape-font-specification:'Comfortaa, Bold';font-variant-ligatures:normal;font-variant-caps:normal;font-variant-numeric:normal;font-variant-east-asian:normal;letter-spacing:0px;word-spacing:0px;fill:url(#linearGradient8);fill-opacity:1;stroke:none;stroke-width:3.43613"
       x="246.91481"
       y="47.684925">alpha</tspan></text><text
     xml:space="preserve"
     style="font-style:normal;font-variant:normal;font-weight:normal;font-stretch:normal;font-size:33.8831px;line-height:7.8;font-family:Comfortaa;-inkscape-font-specification:'Comfortaa, Normal';font-variant-ligatures:normal;font-variant-caps:normal;font-variant-numeric:normal;font-variant-east-asian:normal;text-align:start;text-decoration-color:#000000;letter-spacing:0px;word-spacing:0px;writing-mode:lr-tb;direction:ltr;text-anchor:start;opacity:1;fill:url(#linearGradient12);fill-rule:evenodd;stroke:none;stroke-width:0.485568;stroke-linecap:round;stroke-linejoin:round;stroke-miterlimit:0;stroke-dasharray:none;stroke-opacity:1;fill-opacity:1"
     x="59.705807"
     y="39.836098"
     id="text33"
     inkscape:label="name"><tspan
       sodipodi:role="line"
       id="tspan33"
       style="font-style:normal;font-variant:normal;font-weight:normal;font-stretch:normal;font-size:33.8831px;line-height:7.8;font-family:Comfortaa;-inkscape-font-specification:'Comfortaa, Normal';font-variant-ligatures:normal;font-variant-caps:normal;font-variant-numeric:normal;font-variant-east-asian:normal;letter-spacing:0px;fill:url(#linearGradient12);stroke:none;stroke-width:0.485568;stroke-opacity:1;fill-opacity:1"
       x="59.705807"
       y="39.836098">OpenONDA</tspan></text><text
     xml:space="preserve"
     style="font-style:normal;font-variant:normal;font-weight:normal;font-stretch:normal;font-size:6.35px;line-height:7.8;font-family:Comfortaa;-inkscape-font-specification:'Comfortaa, Normal';font-variant-ligatures:normal;font-variant-caps:normal;font-variant-numeric:normal;font-variant-east-asian:normal;text-align:start;text-decoration-color:#000000;letter-spacing:0px;word-spacing:0px;writing-mode:lr-tb;direction:ltr;text-anchor:start;fill:url(#linearGradient3);fill-rule:evenodd;stroke:none;stroke-width:0.485568;stroke-linecap:round;stroke-linejoin:round;stroke-miterlimit:0;stroke-dasharray:none;stroke-opacity:1"
     x="313.19653"
     y="-130.71422"
     id="text33-7"
     inkscape:label="name"><tspan
       sodipodi:role="line"
       id="tspan33-9"
       style="font-style:normal;font-variant:normal;font-weight:normal;font-stretch:normal;font-size:6.35px;line-height:7.8;font-family:Comfortaa;-inkscape-font-specification:'Comfortaa, Normal';font-variant-ligatures:normal;font-variant-caps:normal;font-variant-numeric:normal;font-variant-east-asian:normal;letter-spacing:0px;fill:url(#linearGradient3);stroke:none;stroke-width:0.485568;stroke-opacity:1"
       x="313.19653"
       y="-130.71422">font: Comfortaa</tspan></text><g
     id="g9"
     inkscape:label="Logo"
     transform="matrix(0.84358548,0,0,0.84358548,-6.3172773,11.724642)"><path
       style="fill:url(#linearGradient5);stroke-width:0.0997789"
       d="m 34.570438,50.121104 c -5.382176,-0.379275 -10.99564,-2.75196 -14.99179,-6.336687 -0.397866,-0.356906 -0.723394,-0.684745 -0.723394,-0.728531 0,-0.04378 0.186982,-0.104693 0.415538,-0.135347 0.228544,-0.03065 0.927984,-0.30597 1.554315,-0.611811 0.990397,-0.483622 1.215569,-0.556077 1.728132,-0.556077 0.519577,0 0.710818,0.0637 1.615111,0.537939 1.248965,0.655005 1.863666,0.846073 2.968555,0.922731 2.222556,0.154204 4.758052,-0.852924 5.986658,-2.377974 0.441782,-0.548387 1.05982,-1.67055 1.191759,-2.163867 0.06014,-0.224868 0.109118,-0.17164 0.499545,0.542864 0.304526,0.557287 0.687489,1.045557 1.29157,1.646725 1.023681,1.018743 2.155493,1.653228 3.681442,2.063782 0.865992,0.232994 1.154233,0.261123 2.714986,0.264948 1.592632,0.0039 2.840587,-0.348588 3.716897,-0.59132 2.430326,-0.673187 4.480525,-4.248776 4.480525,-4.248776 0.97846,1.614032 2.385094,3.037982 3.920342,3.404379 l 0.693077,0.165407 -0.67731,0.667374 c -1.629781,1.60589 -3.720708,3.22675 -5.404269,4.189316 -3.443821,1.968992 -6.951859,3.036939 -11.014758,3.353215 -1.486298,0.115703 -1.900811,0.114757 -3.646931,-0.0083 z"
       id="path69"
       sodipodi:nodetypes="ssssssssssssssssscsssss"
       inkscape:label="Belly" /><path
       style="fill:url(#linearGradient9);stroke-width:0.0997789"
       d="m 17.408458,41.256532 c -0.309704,-0.130914 -1.259409,-1.153988 -2.033005,-2.190055 -0.608505,-0.814966 -2.008045,-3.303724 -2.008045,-3.570839 0,-0.161634 0.940236,0.01888 1.319609,0.25334 0.198907,0.12293 0.901601,0.86476 1.561541,1.648511 1.287097,1.528584 1.772761,2.016834 2.835375,2.85049 0.372728,0.29242 0.66102,0.581702 0.640632,0.64285 -0.101248,0.303745 -1.820484,0.575205 -2.316107,0.365703 z m 8.364708,-0.08769 c -0.283581,-0.098 -0.677118,-0.301369 -0.874513,-0.451933 -0.647666,-0.494 -1.418727,-0.785197 -2.088781,-0.788845 -0.336615,-0.0019 -0.751108,0.02836 -0.921091,0.0671 -0.265211,0.06043 -0.417903,-0.0023 -1.076017,-0.44254 -0.941662,-0.629819 -2.254264,-1.85932 -3.190462,-2.988469 -1.005002,-1.212137 -1.882577,-2.052775 -2.435465,-2.332943 -0.44157,-0.223761 -1.246207,-0.422699 -1.96251,-0.48521 -0.313634,-0.02737 -0.358806,-0.115644 -0.493017,-0.963429 l -0.06949,-0.438987 1.039437,0.0672 c 0.571695,0.03696 1.302933,0.134844 1.624979,0.217521 1.187162,0.304774 1.511174,0.539661 3.235595,2.345585 2.500489,2.61867 3.94487,3.624701 7.318106,5.097181 0.902592,0.393998 2.945377,0.983132 3.408949,0.983132 0.133495,0 0.242712,0.0388 0.242712,0.08621 0,0.270158 -2.993406,0.292795 -3.758434,0.02843 z m 12.627007,-1.050629 c -1.311613,-0.468705 -2.184199,-1.605124 -2.734021,-3.560652 -0.143972,-0.512067 -0.304507,-1.01089 -0.356753,-1.108498 -0.239386,-0.447314 -1.051787,-0.544327 -1.447232,-0.172825 -0.133914,0.125803 -0.33011,0.509223 -0.435993,0.852046 -0.277735,0.899209 -0.531355,1.346724 -1.006492,1.775982 -0.770123,0.695761 -1.150061,0.806289 -2.738411,0.796646 -1.647762,-0.01004 -2.279841,-0.178009 -4.331996,-1.151454 -2.132686,-1.01165 -2.990696,-1.654002 -5.247456,-3.928553 -1.863292,-1.877978 -2.052691,-2.039623 -2.843699,-2.42697 -1.215826,-0.595371 -2.68988,-0.915863 -4.212378,-0.915863 h -0.576345 v -0.607946 c 0,-0.805604 0.339112,-2.436154 0.702009,-3.375483 0.979965,-2.536544 2.912284,-4.445405 5.340157,-5.275327 1.135674,-0.388211 2.29792,-0.55133 3.935733,-0.552382 3.995457,-0.0027 7.495931,1.307446 11.674139,4.368917 0.466464,0.341792 1.61143,1.183307 2.544361,1.870034 2.348826,1.728963 3.376679,2.388316 4.939058,3.168336 2.076201,1.036552 3.570651,1.497401 5.533671,1.706435 3.878529,0.413011 7.329123,-1.174546 9.366359,-4.309295 1.041933,-1.603259 1.510665,-3.084562 1.511264,-4.776049 0,-0.943415 -0.02817,-1.109713 -0.286546,-1.671044 -0.304932,-0.662505 -0.92543,-1.320567 -1.481199,-1.570894 -0.1789,-0.08058 -0.751285,-0.311322 -1.271972,-0.512759 -1.358279,-0.525487 -2.226327,-1.071891 -3.149654,-1.982593 -1.621166,-1.598992 -2.391799,-3.218628 -2.650706,-5.570927 -0.109106,-0.991291 -0.05407,-1.8626017 0.11764,-1.8626017 0.05138,0 0.309833,0.1554669 0.574328,0.3454847 0.963616,0.692286 1.915936,1.059006 3.388952,1.305014 1.612758,0.269345 2.157409,0.439395 2.965481,0.925854 1.332578,0.802219 2.368633,2.201229 2.805614,3.788505 0.234982,0.853522 0.410492,0.799409 0.745089,-0.229714 0.406151,-1.249155 0.750078,-1.827619 1.576717,-2.651941 1.071597,-1.068581 1.843647,-1.434513 3.668355,-1.738711 0.759926,-0.126685 1.516381,-0.262979 1.681016,-0.302874 0.508113,-0.123129 1.539917,-0.621316 2.151702,-1.0389202 0.42422,-0.289569 0.60489,-0.3647408 0.662573,-0.2756881 0.04362,0.067343 0.07161,0.5265428 0.06218,1.0204493 -0.07439,3.899846 -2.372566,7.042003 -6.13956,8.394262 -1.514066,0.543513 -2.151224,1.036767 -2.603773,2.015707 -0.209983,0.454238 -0.216937,0.606183 -0.276996,6.053555 -0.05017,4.550113 -0.09043,5.70865 -0.21688,6.239437 -0.543234,2.280399 -1.864887,4.957631 -3.052625,6.183631 -0.589386,0.608369 -1.100523,0.76968 -1.946032,0.614156 -0.82061,-0.150943 -1.404705,-0.461818 -2.015702,-1.072809 -0.635564,-0.635562 -1.154663,-1.534543 -1.528453,-2.64698 -0.317907,-0.946092 -0.593538,-1.231182 -1.174412,-1.214718 -0.548094,0.01554 -0.801493,0.340466 -1.123559,1.440748 -0.152273,0.520186 -0.407717,1.1876 -0.567663,1.483143 -0.398717,0.736775 -1.215727,1.595652 -1.854392,1.949428 -0.472712,0.261852 -0.625952,0.294432 -1.379882,0.293368 -0.911022,-0.0013 -1.432857,-0.185562 -1.845911,-0.651847 -0.36627,-0.413463 -1.065679,-0.793751 -1.459836,-0.793751 -0.542658,0 -0.791587,0.122966 -1.464556,0.723441 -0.83491,0.744973 -1.647032,0.949344 -2.525316,0.63549 z m -10.38607,-5.514151 c 0.391644,-0.285263 0.738705,-1.011118 0.661033,-1.382512 -0.12128,-0.579936 -0.366795,-0.954671 -0.786697,-1.20075 -0.521874,-0.305839 -0.897083,-0.310773 -1.44873,-0.01905 -1.038698,0.549274 -1.081704,2.042183 -0.07701,2.673067 0.411925,0.258661 1.248345,0.222828 1.6514,-0.07075 z M 7.826982,24.986976 C 7.543261,24.690836 7.536706,24.659028 7.497082,23.387334 7.446232,21.755616 7.630251,18.919153 7.884695,17.412306 8.706864,12.54336 10.534247,8.264783 13.464286,4.3484764 15.168969,2.0699739 16.77424,0.46624854 19.08694,-1.2687589 c 1.458119,-1.0938852 1.759628,-1.1939945 2.217427,-0.7361998 0.540831,0.5408347 0.296384,0.8957659 -1.652382,2.39923443 C 15.34881,3.7141722 11.911973,8.8747324 10.27425,14.475362 c -0.737626,2.522541 -0.997569,4.580844 -0.997698,7.900182 -7.1e-5,1.700315 -0.0302,2.183527 -0.150786,2.416682 -0.296845,0.574033 -0.855197,0.657757 -1.298784,0.19475 z m 37.5483,-2.10748 c -0.325599,-0.119064 -0.67728,-0.653449 -0.67728,-1.02913 0,-0.357059 0.272137,-0.807313 0.569968,-0.943016 0.471305,-0.214738 0.920979,-0.133971 1.285921,0.23097 0.557225,0.557225 0.436791,1.346188 -0.260533,1.706788 -0.326666,0.168927 -0.529388,0.176519 -0.918076,0.03438 z m 5.354808,-1.32755 c -0.314266,-0.314264 -0.320112,-0.74722 -0.01399,-1.034822 0.302549,-0.284225 0.618457,-0.274635 0.92106,0.02799 0.311589,0.311593 0.323242,0.771906 0.02655,1.04833 -0.291904,0.27195 -0.635466,0.256692 -0.933622,-0.04147 z m -9.67402,-1.624222 c -1.202765,-0.301147 -1.430202,-2.111816 -0.336315,-2.677488 0.41521,-0.214716 1.0111,-0.203289 1.414077,0.02711 0.448596,0.256485 0.802463,0.992324 0.711185,1.478862 -0.09102,0.485184 -0.565756,1.014626 -1.023872,1.141866 -0.386015,0.107214 -0.445992,0.109538 -0.765075,0.02964 z M 17.508236,18.722212 c -0.258191,-0.05059 -0.53335,-0.297896 -0.708672,-0.636929 -0.182276,-0.352487 -0.184956,-2.245161 -0.0041,-2.923723 0.354792,-1.331461 1.292754,-2.28056 2.651663,-2.683144 0.443818,-0.131486 1.068433,-0.160558 3.449549,-0.160558 3.197307,0 3.482528,-0.0412 4.162059,-0.601336 0.436125,-0.359491 0.776662,-1.027848 0.776662,-1.52433 0,-0.2015359 -0.141268,-0.8047381 -0.313924,-1.3404601 -0.525993,-1.6321034 -0.406798,-2.8354885 0.405325,-4.0919941 0.682417,-1.0558306 1.694954,-1.6215411 2.90231,-1.6215411 0.851063,0 1.462649,0.2526118 2.061572,0.8515458 0.770145,0.7701424 0.917708,1.5998946 0.426644,2.3990853 -0.266037,0.4329601 -0.605568,0.5607167 -1.285668,0.4837701 -0.549464,-0.06216 -0.577024,-0.0538 -0.835651,0.2535587 -0.202851,0.2410637 -0.267448,0.425656 -0.267448,0.7641565 0,0.5767294 0.208588,0.9680749 0.709328,1.3308088 1.65309,1.1974861 4.451768,-0.039124 5.668334,-2.5045793 2.132674,-4.3219876 -0.982892,-9.5278841 -5.828876,-9.7396542 -1.287909,-0.056275 -2.238591,0.1401779 -3.325067,0.6871188 C 27.088135,-1.8003011 26.215458,-0.96360214 25.715834,0 25.51527,0.38682451 25.263269,0.78285772 25.155828,0.8800902 24.867804,1.1407417 24.362694,1.0597706 24.103558,0.71140563 23.920176,0.46486151 23.889804,0.26249933 23.859249,-0.91639864 23.648727,-9.0400526 30.782362,-15.172717 38.696221,-13.671485 c 5.519033,1.046942 9.687918,5.7206189 10.18823,11.4218713 0.0968,1.1030644 0.0089,2.84803794 -0.198142,3.9309799 -0.327015,1.7109589 -1.356824,4.0092967 -2.472492,5.5181047 -0.850785,1.150582 -2.634903,2.9024311 -3.815957,3.7469321 -1.93595,1.384289 -5.101619,2.734014 -7.627811,3.252234 -1.968317,0.403779 -2.521262,0.436822 -8.43132,0.50384 -4.050129,0.04593 -5.917681,0.101377 -6.10038,0.181117 -0.420006,0.183325 -0.978103,0.723621 -1.204949,1.166526 -0.130479,0.254778 -0.238143,0.722825 -0.286006,1.243451 -0.06534,0.710731 -0.116322,0.876194 -0.34286,1.112642 -0.2747,0.286727 -0.550083,0.38382 -0.896246,0.315999 z M 44.46402,15.128758 c -0.372404,-0.411498 -0.109071,-1.048136 0.433539,-1.048136 0.376737,0 0.598675,0.2356 0.598675,0.635537 0,0.523231 -0.684494,0.796834 -1.032214,0.412599 z M 17.652615,10.266767 c -0.35125,-0.3738933 -0.333458,-0.9825233 0.03806,-1.3020957 0.403418,-0.3470119 0.897242,-0.3219752 1.284326,0.065114 0.260404,0.2603911 0.295616,0.3553983 0.245727,0.6628703 -0.08671,0.5343254 -0.411821,0.8291824 -0.914265,0.8291824 -0.315263,0 -0.471475,-0.06094 -0.653854,-0.255075 z M 61.011862,9.9261613 C 60.707675,9.8054088 60.54797,9.5754391 59.867477,8.2782833 58.715648,6.0826459 57.418783,4.3610974 55.431635,2.3898568 54.65234,1.6168002 53.561445,0.65874037 52.988955,0.24460916 51.59596,-0.76307064 51.293522,-1.0466817 51.224035,-1.410415 c -0.08658,-0.4532157 0.286714,-0.8594053 0.7898,-0.8594053 0.323144,0 0.588797,0.161433 1.942256,1.1803134 3.233638,2.4342582 5.784448,5.4124819 7.518886,8.7787444 0.621391,1.2060179 0.707589,1.628163 0.407725,1.9969459 -0.200707,0.2468302 -0.586059,0.3530266 -0.87084,0.2399779 z M 21.249949,7.458001 C 20.488764,7.1797559 20.338886,6.0254635 21.007073,5.5876418 c 0.508015,-0.3328625 1.315276,-0.098365 1.541505,0.4477784 0.33556,0.8101271 -0.492526,1.7172554 -1.298629,1.4225808 z M 52.522688,6.3166962 c -0.344817,-0.167308 -0.571266,-0.6530011 -0.511658,-1.097396 0.06363,-0.4744217 0.213569,-0.6705982 0.652896,-0.854239 0.404842,-0.1692239 0.868275,-0.048021 1.210908,0.3166991 0.248667,0.2646912 0.301042,0.8794718 0.105978,1.2439523 -0.226102,0.4224768 -0.977814,0.6240497 -1.458121,0.3909836 z"
       id="path69-6-3"
       sodipodi:nodetypes="ssssssssssssssssscsssssssssssssssssscssssssssscsssssssssssssssssssssssssssssssssssssssssssssssssssssssssssssssssssssscsssssssssssssssssssssscssssssssssssssssssssssssssssssssssssssssssssssss"
       inkscape:label="Top" /></g></svg>
