solid cube
facet normal 1 0 0
outer loop
vertex 0.5 -0.5 -0.5
vertex 0.5 -0.166667 -0.5
vertex 0.5 -0.166667 -0.166667
endloop
endfacet
facet normal 1 0 0
outer loop
vertex 0.5 -0.5 -0.5
vertex 0.5 -0.166667 -0.166667
vertex 0.5 -0.5 -0.166667
endloop
endfacet
facet normal 1 0 0
outer loop
vertex 0.5 -0.166667 -0.5
vertex 0.5 0.166667 -0.5
vertex 0.5 0.166667 -0.166667
endloop
endfacet
facet normal 1 0 0
outer loop
vertex 0.5 -0.166667 -0.5
vertex 0.5 0.166667 -0.166667
vertex 0.5 -0.166667 -0.166667
endloop
endfacet
facet normal 1 0 0
outer loop
vertex 0.5 0.166667 -0.5
vertex 0.5 0.5 -0.5
vertex 0.5 0.5 -0.166667
endloop
endfacet
facet normal 1 0 0
outer loop
vertex 0.5 0.166667 -0.5
vertex 0.5 0.5 -0.166667
vertex 0.5 0.166667 -0.166667
endloop
endfacet
facet normal 1 0 0
outer loop
vertex 0.5 -0.5 -0.166667
vertex 0.5 -0.166667 -0.166667
vertex 0.5 -0.166667 0.166667
endloop
endfacet
facet normal 1 0 0
outer loop
vertex 0.5 -0.5 -0.166667
vertex 0.5 -0.166667 0.166667
vertex 0.5 -0.5 0.166667
endloop
endfacet
facet normal 1 0 0
outer loop
vertex 0.5 -0.166667 -0.166667
vertex 0.5 0.166667 -0.166667
vertex 0.5 0.166667 0.166667
endloop
endfacet
facet normal 1 0 0
outer loop
vertex 0.5 -0.166667 -0.166667
vertex 0.5 0.166667 0.166667
vertex 0.5 -0.166667 0.166667
endloop
endfacet
facet normal 1 0 0
outer loop
vertex 0.5 0.166667 -0.166667
vertex 0.5 0.5 -0.166667
vertex 0.5 0.5 0.166667
endloop
endfacet
facet normal 1 0 0
outer loop
vertex 0.5 0.166667 -0.166667
vertex 0.5 0.5 0.166667
vertex 0.5 0.166667 0.166667
endloop
endfacet
facet normal 1 0 0
outer loop
vertex 0.5 -0.5 0.166667
vertex 0.5 -0.166667 0.166667
vertex 0.5 -0.166667 0.5
endloop
endfacet
facet normal 1 0 0
outer loop
vertex 0.5 -0.5 0.166667
vertex 0.5 -0.166667 0.5
vertex 0.5 -0.5 0.5
endloop
endfacet
facet normal 1 0 0
outer loop
vertex 0.5 -0.166667 0.166667
vertex 0.5 0.166667 0.166667
vertex 0.5 0.166667 0.5
endloop
endfacet
facet normal 1 0 0
outer loop
vertex 0.5 -0.166667 0.166667
vertex 0.5 0.166667 0.5
vertex 0.5 -0.166667 0.5
endloop
endfacet
facet normal 1 0 0
outer loop
vertex 0.5 0.166667 0.166667
vertex 0.5 0.5 0.166667
vertex 0.5 0.5 0.5
endloop
endfacet
facet normal 1 0 0
outer loop
vertex 0.5 0.166667 0.166667
vertex 0.5 0.5 0.5
vertex 0.5 0.166667 0.5
endloop
endfacet
facet normal -1 0 0
outer loop
vertex -0.5 -0.5 -0.5
vertex -0.5 -0.5 -0.166667
vertex -0.5 -0.166667 -0.166667
endloop
endfacet
facet normal -1 0 0
outer loop
vertex -0.5 -0.5 -0.5
vertex -0.5 -0.166667 -0.166667
vertex -0.5 -0.166667 -0.5
endloop
endfacet
facet normal -1 0 0
outer loop
vertex -0.5 -0.5 -0.166667
vertex -0.5 -0.5 0.166667
vertex -0.5 -0.166667 0.166667
endloop
endfacet
facet normal -1 0 0
outer loop
vertex -0.5 -0.5 -0.166667
vertex -0.5 -0.166667 0.166667
vertex -0.5 -0.166667 -0.166667
endloop
endfacet
facet normal -1 0 0
outer loop
vertex -0.5 -0.5 0.166667
vertex -0.5 -0.5 0.5
vertex -0.5 -0.166667 0.5
endloop
endfacet
facet normal -1 0 0
outer loop
vertex -0.5 -0.5 0.166667
vertex -0.5 -0.166667 0.5
vertex -0.5 -0.166667 0.166667
endloop
endfacet
facet normal -1 0 0
outer loop
vertex -0.5 -0.166667 -0.5
vertex -0.5 -0.166667 -0.166667
vertex -0.5 0.166667 -0.166667
endloop
endfacet
facet normal -1 0 0
outer loop
vertex -0.5 -0.166667 -0.5
vertex -0.5 0.166667 -0.166667
vertex -0.5 0.166667 -0.5
endloop
endfacet
facet normal -1 0 0
outer loop
vertex -0.5 -0.166667 -0.166667
vertex -0.5 -0.166667 0.166667
vertex -0.5 0.166667 0.166667
endloop
endfacet
facet normal -1 0 0
outer loop
vertex -0.5 -0.166667 -0.166667
vertex -0.5 0.166667 0.166667
vertex -0.5 0.166667 -0.166667
endloop
endfacet
facet normal -1 0 0
outer loop
vertex -0.5 -0.166667 0.166667
vertex -0.5 -0.166667 0.5
vertex -0.5 0.166667 0.5
endloop
endfacet
facet normal -1 0 0
outer loop
vertex -0.5 -0.166667 0.166667
vertex -0.5 0.166667 0.5
vertex -0.5 0.166667 0.166667
endloop
endfacet
facet normal -1 0 0
outer loop
vertex -0.5 0.166667 -0.5
vertex -0.5 0.166667 -0.166667
vertex -0.5 0.5 -0.166667
endloop
endfacet
facet normal -1 0 0
outer loop
vertex -0.5 0.166667 -0.5
vertex -0.5 0.5 -0.166667
vertex -0.5 0.5 -0.5
endloop
endfacet
facet normal -1 0 0
outer loop
vertex -0.5 0.166667 -0.166667
vertex -0.5 0.166667 0.166667
vertex -0.5 0.5 0.166667
endloop
endfacet
facet normal -1 0 0
outer loop
vertex -0.5 0.166667 -0.166667
vertex -0.5 0.5 0.166667
vertex -0.5 0.5 -0.166667
endloop
endfacet
facet normal -1 0 0
outer loop
vertex -0.5 0.166667 0.166667
vertex -0.5 0.166667 0.5
vertex -0.5 0.5 0.5
endloop
endfacet
facet normal -1 0 0
outer loop
vertex -0.5 0.166667 0.166667
vertex -0.5 0.5 0.5
vertex -0.5 0.5 0.166667
endloop
endfacet
facet normal 0 1 0
outer loop
vertex -0.5 0.5 -0.5
vertex -0.5 0.5 -0.166667
vertex -0.166667 0.5 -0.166667
endloop
endfacet
facet normal 0 1 0
outer loop
vertex -0.5 0.5 -0.5
vertex -0.166667 0.5 -0.166667
vertex -0.166667 0.5 -0.5
endloop
endfacet
facet normal 0 1 0
outer loop
vertex -0.5 0.5 -0.166667
vertex -0.5 0.5 0.166667
vertex -0.166667 0.5 0.166667
endloop
endfacet
facet normal 0 1 0
outer loop
vertex -0.5 0.5 -0.166667
vertex -0.166667 0.5 0.166667
vertex -0.166667 0.5 -0.166667
endloop
endfacet
facet normal 0 1 0
outer loop
vertex -0.5 0.5 0.166667
vertex -0.5 0.5 0.5
vertex -0.166667 0.5 0.5
endloop
endfacet
facet normal 0 1 0
outer loop
vertex -0.5 0.5 0.166667
vertex -0.166667 0.5 0.5
vertex -0.166667 0.5 0.166667
endloop
endfacet
facet normal 0 1 0
outer loop
vertex -0.166667 0.5 -0.5
vertex -0.166667 0.5 -0.166667
vertex 0.166667 0.5 -0.166667
endloop
endfacet
facet normal 0 1 0
outer loop
vertex -0.166667 0.5 -0.5
vertex 0.166667 0.5 -0.166667
vertex 0.166667 0.5 -0.5
endloop
endfacet
facet normal 0 1 0
outer loop
vertex -0.166667 0.5 -0.166667
vertex -0.166667 0.5 0.166667
vertex 0.166667 0.5 0.166667
endloop
endfacet
facet normal 0 1 0
outer loop
vertex -0.166667 0.5 -0.166667
vertex 0.166667 0.5 0.166667
vertex 0.166667 0.5 -0.166667
endloop
endfacet
facet normal 0 1 0
outer loop
vertex -0.166667 0.5 0.166667
vertex -0.166667 0.5 0.5
vertex 0.166667 0.5 0.5
endloop
endfacet
facet normal 0 1 0
outer loop
vertex -0.166667 0.5 0.166667
vertex 0.166667 0.5 0.5
vertex 0.166667 0.5 0.166667
endloop
endfacet
facet normal 0 1 0
outer loop
vertex 0.166667 0.5 -0.5
vertex 0.166667 0.5 -0.166667
vertex 0.5 0.5 -0.166667
endloop
endfacet
facet normal 0 1 0
outer loop
vertex 0.166667 0.5 -0.5
vertex 0.5 0.5 -0.166667
vertex 0.5 0.5 -0.5
endloop
endfacet
facet normal 0 1 0
outer loop
vertex 0.166667 0.5 -0.166667
vertex 0.166667 0.5 0.166667
vertex 0.5 0.5 0.166667
endloop
endfacet
facet normal 0 1 0
outer loop
vertex 0.166667 0.5 -0.166667
vertex 0.5 0.5 0.166667
vertex 0.5 0.5 -0.166667
endloop
endfacet
facet normal 0 1 0
outer loop
vertex 0.166667 0.5 0.166667
vertex 0.166667 0.5 0.5
vertex 0.5 0.5 0.5
endloop
endfacet
facet normal 0 1 0
outer loop
vertex 0.166667 0.5 0.166667
vertex 0.5 0.5 0.5
vertex 0.5 0.5 0.166667
endloop
endfacet
facet normal 0 -1 0
outer loop
vertex -0.5 -0.5 -0.5
vertex -0.166667 -0.5 -0.5
vertex -0.166667 -0.5 -0.166667
endloop
endfacet
facet normal 0 -1 0
outer loop
vertex -0.5 -0.5 -0.5
vertex -0.166667 -0.5 -0.166667
vertex -0.5 -0.5 -0.166667
endloop
endfacet
facet normal 0 -1 0
outer loop
vertex -0.166667 -0.5 -0.5
vertex 0.166667 -0.5 -0.5
vertex 0.166667 -0.5 -0.166667
endloop
endfacet
facet normal 0 -1 0
outer loop
vertex -0.166667 -0.5 -0.5
vertex 0.166667 -0.5 -0.166667
vertex -0.166667 -0.5 -0.166667
endloop
endfacet
facet normal 0 -1 0
outer loop
vertex 0.166667 -0.5 -0.5
vertex 0.5 -0.5 -0.5
vertex 0.5 -0.5 -0.166667
endloop
endfacet
facet normal 0 -1 0
outer loop
vertex 0.166667 -0.5 -0.5
vertex 0.5 -0.5 -0.166667
vertex 0.166667 -0.5 -0.166667
endloop
endfacet
facet normal 0 -1 0
outer loop
vertex -0.5 -0.5 -0.166667
vertex -0.166667 -0.5 -0.166667
vertex -0.166667 -0.5 0.166667
endloop
endfacet
facet normal 0 -1 0
outer loop
vertex -0.5 -0.5 -0.166667
vertex -0.166667 -0.5 0.166667
vertex -0.5 -0.5 0.166667
endloop
endfacet
facet normal 0 -1 0
outer loop
vertex -0.166667 -0.5 -0.166667
vertex 0.166667 -0.5 -0.166667
vertex 0.166667 -0.5 0.166667
endloop
endfacet
facet normal 0 -1 0
outer loop
vertex -0.166667 -0.5 -0.166667
vertex 0.166667 -0.5 0.166667
vertex -0.166667 -0.5 0.166667
endloop
endfacet
facet normal 0 -1 0
outer loop
vertex 0.166667 -0.5 -0.166667
vertex 0.5 -0.5 -0.166667
vertex 0.5 -0.5 0.166667
endloop
endfacet
facet normal 0 -1 0
outer loop
vertex 0.166667 -0.5 -0.166667
vertex 0.5 -0.5 0.166667
vertex 0.166667 -0.5 0.166667
endloop
endfacet
facet normal 0 -1 0
outer loop
vertex -0.5 -0.5 0.166667
vertex -0.166667 -0.5 0.166667
vertex -0.166667 -0.5 0.5
endloop
endfacet
facet normal 0 -1 0
outer loop
vertex -0.5 -0.5 0.166667
vertex -0.166667 -0.5 0.5
vertex -0.5 -0.5 0.5
endloop
endfacet
facet normal 0 -1 0
outer loop
vertex -0.166667 -0.5 0.166667
vertex 0.166667 -0.5 0.166667
vertex 0.166667 -0.5 0.5
endloop
endfacet
facet normal 0 -1 0
outer loop
vertex -0.166667 -0.5 0.166667
vertex 0.166667 -0.5 0.5
vertex -0.166667 -0.5 0.5
endloop
endfacet
facet normal 0 -1 0
outer loop
vertex 0.166667 -0.5 0.166667
vertex 0.5 -0.5 0.166667
vertex 0.5 -0.5 0.5
endloop
endfacet
facet normal 0 -1 0
outer loop
vertex 0.166667 -0.5 0.166667
vertex 0.5 -0.5 0.5
vertex 0.166667 -0.5 0.5
endloop
endfacet
facet normal 0 0 1
outer loop
vertex -0.5 -0.5 0.5
vertex -0.166667 -0.5 0.5
vertex -0.166667 -0.166667 0.5
endloop
endfacet
facet normal 0 0 1
outer loop
vertex -0.5 -0.5 0.5
vertex -0.166667 -0.166667 0.5
vertex -0.5 -0.166667 0.5
endloop
endfacet
facet normal 0 0 1
outer loop
vertex -0.166667 -0.5 0.5
vertex 0.166667 -0.5 0.5
vertex 0.166667 -0.166667 0.5
endloop
endfacet
facet normal 0 0 1
outer loop
vertex -0.166667 -0.5 0.5
vertex 0.166667 -0.166667 0.5
vertex -0.166667 -0.166667 0.5
endloop
endfacet
facet normal 0 0 1
outer loop
vertex 0.166667 -0.5 0.5
vertex 0.5 -0.5 0.5
vertex 0.5 -0.166667 0.5
endloop
endfacet
facet normal 0 0 1
outer loop
vertex 0.166667 -0.5 0.5
vertex 0.5 -0.166667 0.5
vertex 0.166667 -0.166667 0.5
endloop
endfacet
facet normal 0 0 1
outer loop
vertex -0.5 -0.166667 0.5
vertex -0.166667 -0.166667 0.5
vertex -0.166667 0.166667 0.5
endloop
endfacet
facet normal 0 0 1
outer loop
vertex -0.5 -0.166667 0.5
vertex -0.166667 0.166667 0.5
vertex -0.5 0.166667 0.5
endloop
endfacet
facet normal 0 0 1
outer loop
vertex -0.166667 -0.166667 0.5
vertex 0.166667 -0.166667 0.5
vertex 0.166667 0.166667 0.5
endloop
endfacet
facet normal 0 0 1
outer loop
vertex -0.166667 -0.166667 0.5
vertex 0.166667 0.166667 0.5
vertex -0.166667 0.166667 0.5
endloop
endfacet
facet normal 0 0 1
outer loop
vertex 0.166667 -0.166667 0.5
vertex 0.5 -0.166667 0.5
vertex 0.5 0.166667 0.5
endloop
endfacet
facet normal 0 0 1
outer loop
vertex 0.166667 -0.166667 0.5
vertex 0.5 0.166667 0.5
vertex 0.166667 0.166667 0.5
endloop
endfacet
facet normal 0 0 1
outer loop
vertex -0.5 0.166667 0.5
vertex -0.166667 0.166667 0.5
vertex -0.166667 0.5 0.5
endloop
endfacet
facet normal 0 0 1
outer loop
vertex -0.5 0.166667 0.5
vertex -0.166667 0.5 0.5
vertex -0.5 0.5 0.5
endloop
endfacet
facet normal 0 0 1
outer loop
vertex -0.166667 0.166667 0.5
vertex 0.166667 0.166667 0.5
vertex 0.166667 0.5 0.5
endloop
endfacet
facet normal 0 0 1
outer loop
vertex -0.166667 0.166667 0.5
vertex 0.166667 0.5 0.5
vertex -0.166667 0.5 0.5
endloop
endfacet
facet normal 0 0 1
outer loop
vertex 0.166667 0.166667 0.5
vertex 0.5 0.166667 0.5
vertex 0.5 0.5 0.5
endloop
endfacet
facet normal 0 0 1
outer loop
vertex 0.166667 0.166667 0.5
vertex 0.5 0.5 0.5
vertex 0.166667 0.5 0.5
endloop
endfacet
facet normal 0 0 -1
outer loop
vertex -0.5 -0.5 -0.5
vertex -0.5 -0.166667 -0.5
vertex -0.166667 -0.166667 -0.5
endloop
endfacet
facet normal 0 0 -1
outer loop
vertex -0.5 -0.5 -0.5
vertex -0.166667 -0.166667 -0.5
vertex -0.166667 -0.5 -0.5
endloop
endfacet
facet normal 0 0 -1
outer loop
vertex -0.5 -0.166667 -0.5
vertex -0.5 0.166667 -0.5
vertex -0.166667 0.166667 -0.5
endloop
endfacet
facet normal 0 0 -1
outer loop
vertex -0.5 -0.166667 -0.5
vertex -0.166667 0.166667 -0.5
vertex -0.166667 -0.166667 -0.5
endloop
endfacet
facet normal 0 0 -1
outer loop
vertex -0.5 0.166667 -0.5
vertex -0.5 0.5 -0.5
vertex -0.166667 0.5 -0.5
endloop
endfacet
facet normal 0 0 -1
outer loop
vertex -0.5 0.166667 -0.5
vertex -0.166667 0.5 -0.5
vertex -0.166667 0.166667 -0.5
endloop
endfacet
facet normal 0 0 -1
outer loop
vertex -0.166667 -0.5 -0.5
vertex -0.166667 -0.166667 -0.5
vertex 0.166667 -0.166667 -0.5
endloop
endfacet
facet normal 0 0 -1
outer loop
vertex -0.166667 -0.5 -0.5
vertex 0.166667 -0.166667 -0.5
vertex 0.166667 -0.5 -0.5
endloop
endfacet
facet normal 0 0 -1
outer loop
vertex -0.166667 -0.166667 -0.5
vertex -0.166667 0.166667 -0.5
vertex 0.166667 0.166667 -0.5
endloop
endfacet
facet normal 0 0 -1
outer loop
vertex -0.166667 -0.166667 -0.5
vertex 0.166667 0.166667 -0.5
vertex 0.166667 -0.166667 -0.5
endloop
endfacet
facet normal 0 0 -1
outer loop
vertex -0.166667 0.166667 -0.5
vertex -0.166667 0.5 -0.5
vertex 0.166667 0.5 -0.5
endloop
endfacet
facet normal 0 0 -1
outer loop
vertex -0.166667 0.166667 -0.5
vertex 0.166667 0.5 -0.5
vertex 0.166667 0.166667 -0.5
endloop
endfacet
facet normal 0 0 -1
outer loop
vertex 0.166667 -0.5 -0.5
vertex 0.166667 -0.166667 -0.5
vertex 0.5 -0.166667 -0.5
endloop
endfacet
facet normal 0 0 -1
outer loop
vertex 0.166667 -0.5 -0.5
vertex 0.5 -0.166667 -0.5
vertex 0.5 -0.5 -0.5
endloop
endfacet
facet normal 0 0 -1
outer loop
vertex 0.166667 -0.166667 -0.5
vertex 0.166667 0.166667 -0.5
vertex 0.5 0.166667 -0.5
endloop
endfacet
facet normal 0 0 -1
outer loop
vertex 0.166667 -0.166667 -0.5
vertex 0.5 0.166667 -0.5
vertex 0.5 -0.166667 -0.5
endloop
endfacet
facet normal 0 0 -1
outer loop
vertex 0.166667 0.166667 -0.5
vertex 0.166667 0.5 -0.5
vertex 0.5 0.5 -0.5
endloop
endfacet
facet normal 0 0 -1
outer loop
vertex 0.166667 0.166667 -0.5
vertex 0.5 0.5 -0.5
vertex 0.5 0.166667 -0.5
endloop
endfacet
endsolid cube
