solid body
  facet normal 1 0 0
    outer loop
      vertex 0.5 -0.5 -0.5
      vertex 0.5 0.5 -0.5
      vertex 0.5 0.5 0.5
    endloop
  endfacet
  facet normal 1 0 0
    outer loop
      vertex 0.5 -0.5 -0.5
      vertex 0.5 0.5 0.5
      vertex 0.5 -0.5 0.5
    endloop
  endfacet
  facet normal -1 0 0
    outer loop
      vertex -0.5 -0.5 -0.5
      vertex -0.5 -0.5 0.5
      vertex -0.5 0.5 0.5
    endloop
  endfacet
  facet normal -1 0 0
    outer loop
      vertex -0.5 -0.5 -0.5
      vertex -0.5 0.5 0.5
      vertex -0.5 0.5 -0.5
    endloop
  endfacet
  facet normal 0 1 0
    outer loop
      vertex -0.5 0.5 -0.5
      vertex -0.5 0.5 0.5
      vertex 0.5 0.5 0.5
    endloop
  endfacet
  facet normal 0 1 0
    outer loop
      vertex -0.5 0.5 -0.5
      vertex 0.5 0.5 0.5
      vertex 0.5 0.5 -0.5
    endloop
  endfacet
  facet normal 0 -1 0
    outer loop
      vertex -0.5 -0.5 -0.5
      vertex 0.5 -0.5 -0.5
      vertex 0.5 -0.5 0.5
    endloop
  endfacet
  facet normal 0 -1 0
    outer loop
      vertex -0.5 -0.5 -0.5
      vertex 0.5 -0.5 0.5
      vertex -0.5 -0.5 0.5
    endloop
  endfacet
  facet normal 0 0 1
    outer loop
      vertex -0.5 -0.5 0.5
      vertex 0.5 -0.5 0.5
      vertex 0.5 0.5 0.5
    endloop
  endfacet
  facet normal 0 0 1
    outer loop
      vertex -0.5 -0.5 0.5
      vertex 0.5 0.5 0.5
      vertex -0.5 0.5 0.5
    endloop
  endfacet
  facet normal 0 0 -1
    outer loop
      vertex -0.5 -0.5 -0.5
      vertex -0.5 0.5 -0.5
      vertex 0.5 0.5 -0.5
    endloop
  endfacet
  facet normal 0 0 -1
    outer loop
      vertex -0.5 -0.5 -0.5
      vertex 0.5 0.5 -0.5
      vertex 0.5 -0.5 -0.5
    endloop
  endfacet
endsolid body
solid front_back
  facet normal 0 0 -1
    outer loop
      vertex -1.5 -1.5 -1.5
      vertex -1.5 1.5 -1.5
      vertex 1.5 1.5 -1.5
    endloop
  endfacet
  facet normal 0 0 -1
    outer loop
      vertex -1.5 -1.5 -1.5
      vertex 1.5 1.5 -1.5
      vertex 1.5 -1.5 -1.5
    endloop
  endfacet
  facet normal 0 0 1
    outer loop
      vertex -1.5 -1.5 1.5
      vertex 1.5 -1.5 1.5
      vertex 1.5 1.5 1.5
    endloop
  endfacet
  facet normal 0 0 1
    outer loop
      vertex -1.5 -1.5 1.5
      vertex 1.5 1.5 1.5
      vertex -1.5 1.5 1.5
    endloop
  endfacet
endsolid front_back
solid inlet
  facet normal -1 0 0
    outer loop
      vertex -1.5 -1.5 -1.5
      vertex -1.5 -1.5 1.5
      vertex -1.5 1.5 1.5
    endloop
  endfacet
  facet normal -1 0 0
    outer loop
      vertex -1.5 -1.5 -1.5
      vertex -1.5 1.5 1.5
      vertex -1.5 1.5 -1.5
    endloop
  endfacet
endsolid inlet
solid outlet
  facet normal 1 0 0
    outer loop
      vertex 1.5 -1.5 -1.5
      vertex 1.5 1.5 -1.5
      vertex 1.5 1.5 1.5
    endloop
  endfacet
  facet normal 1 0 0
    outer loop
      vertex 1.5 -1.5 -1.5
      vertex 1.5 1.5 1.5
      vertex 1.5 -1.5 1.5
    endloop
  endfacet
endsolid outlet
solid walls
  facet normal 0 -1 0
    outer loop
      vertex -1.5 -1.5 -1.5
      vertex 1.5 -1.5 -1.5
      vertex 1.5 -1.5 1.5
    endloop
  endfacet
  facet normal 0 -1 0
    outer loop
      vertex -1.5 -1.5 -1.5
      vertex 1.5 -1.5 1.5
      vertex -1.5 -1.5 1.5
    endloop
  endfacet
  facet normal 0 1 0
    outer loop
      vertex -1.5 1.5 -1.5
      vertex -1.5 1.5 1.5
      vertex 1.5 1.5 1.5
    endloop
  endfacet
  facet normal 0 1 0
    outer loop
      vertex -1.5 1.5 -1.5
      vertex 1.5 1.5 1.5
      vertex 1.5 1.5 -1.5
    endloop
  endfacet
endsolid walls
